<?xml version="1.0" encoding="utf-8" standalone="no"?>
<!DOCTYPE svg PUBLIC "-//W3C//DTD SVG 1.1//EN"
  "http://www.w3.org/Graphics/SVG/1.1/DTD/svg11.dtd">
<svg xmlns:xlink="http://www.w3.org/1999/xlink" width="998.679375pt" height="369.891875pt" viewBox="0 0 998.679375 369.891875" xmlns="http://www.w3.org/2000/svg" version="1.1">
 <metadata>
  <rdf:RDF xmlns:dc="http://purl.org/dc/elements/1.1/" xmlns:cc="http://creativecommons.org/ns#" xmlns:rdf="http://www.w3.org/1999/02/22-rdf-syntax-ns#">
   <cc:Work>
    <dc:type rdf:resource="http://purl.org/dc/dcmitype/StillImage"/>
    <dc:date>2026-05-23T14:13:54.892640</dc:date>
    <dc:format>image/svg+xml</dc:format>
    <dc:creator>
     <cc:Agent>
      <dc:title>Matplotlib v3.10.8, https://matplotlib.org/</dc:title>
     </cc:Agent>
    </dc:creator>
   </cc:Work>
  </rdf:RDF>
 </metadata>
 <defs>
  <style type="text/css">*{stroke-linejoin: round; stroke-linecap: butt}</style>
 </defs>
 <g id="figure_1">
  <g id="patch_1">
   <path d="M 0 369.891875 
L 998.679375 369.891875 
L 998.679375 0 
L 0 0 
z
" style="fill: #ffffff"/>
  </g>
  <g id="axes_1">
   <g id="patch_2">
    <path d="M 45.716875 330.4 
L 487.056875 330.4 
L 487.056875 82.752 
L 45.716875 82.752 
z
" style="fill: #ffffff"/>
   </g>
   <g id="FillBetweenPolyCollection_1">
    <defs>
     <path id="mf1b08bfdc9" d="M 45.716875 -72.547256 
L 45.716875 -69.091231 
L 63.370475 -82.431163 
L 81.024075 -88.750333 
L 98.677675 -98.254243 
L 116.331275 -108.009019 
L 133.984875 -111.920521 
L 151.638475 -118.762973 
L 169.292075 -126.826928 
L 186.945675 -133.876655 
L 204.599275 -143.880885 
L 222.252875 -151.204517 
L 239.906475 -158.665884 
L 257.560075 -162.24058 
L 275.213675 -167.217975 
L 292.867275 -174.188798 
L 310.520875 -183.415608 
L 328.174475 -189.890808 
L 345.828075 -199.048741 
L 363.481675 -205.950433 
L 381.135275 -213.250123 
L 398.788875 -219.149663 
L 416.442475 -225.410387 
L 434.096075 -232.009336 
L 451.749675 -241.051419 
L 469.403275 -257.930762 
L 487.056875 -275.347113 
L 487.056875 -275.347113 
L 487.056875 -275.347113 
L 469.403275 -262.508315 
L 451.749675 -249.455537 
L 434.096075 -241.733121 
L 416.442475 -235.446742 
L 398.788875 -230.958657 
L 381.135275 -225.523792 
L 363.481675 -219.239333 
L 345.828075 -211.793525 
L 328.174475 -201.684488 
L 310.520875 -194.679701 
L 292.867275 -184.449193 
L 275.213675 -177.292393 
L 257.560075 -172.191968 
L 239.906475 -168.043996 
L 222.252875 -161.222686 
L 204.599275 -153.141149 
L 186.945675 -142.46076 
L 169.292075 -135.107993 
L 151.638475 -126.414948 
L 133.984875 -119.033639 
L 116.331275 -114.385547 
L 98.677675 -104.078981 
L 81.024075 -94.121844 
L 63.370475 -87.171572 
L 45.716875 -72.547256 
z
" style="stroke: #2196f3; stroke-opacity: 0.1"/>
    </defs>
    <g clip-path="url(#p0820758f53)">
     <use xlink:href="#mf1b08bfdc9" x="0" y="369.891875" style="fill: #2196f3; fill-opacity: 0.1; stroke: #2196f3; stroke-opacity: 0.1"/>
    </g>
   </g>
   <g id="FillBetweenPolyCollection_2">
    <defs>
     <path id="m2e93f0f697" d="M 45.716875 -68.971635 
L 45.716875 -67.066513 
L 63.370475 -75.315939 
L 81.024075 -83.122391 
L 98.677675 -90.475399 
L 116.331275 -103.065671 
L 133.984875 -109.223841 
L 151.638475 -120.305959 
L 169.292075 -129.302199 
L 186.945675 -135.427317 
L 204.599275 -145.90981 
L 222.252875 -155.705905 
L 239.906475 -166.184855 
L 257.560075 -170.501883 
L 275.213675 -174.518806 
L 292.867275 -183.161395 
L 310.520875 -195.2735 
L 328.174475 -198.385907 
L 345.828075 -207.563998 
L 363.481675 -213.20298 
L 381.135275 -219.352353 
L 398.788875 -224.211493 
L 416.442475 -232.350243 
L 434.096075 -238.532447 
L 451.749675 -247.63684 
L 469.403275 -260.719516 
L 487.056875 -275.347113 
L 487.056875 -275.347113 
L 487.056875 -275.347113 
L 469.403275 -263.667767 
L 451.749675 -251.365832 
L 434.096075 -243.360139 
L 416.442475 -237.564348 
L 398.788875 -230.896226 
L 381.135275 -225.58708 
L 363.481675 -217.824734 
L 345.828075 -212.996441 
L 328.174475 -204.552541 
L 310.520875 -199.159877 
L 292.867275 -186.193094 
L 275.213675 -178.202927 
L 257.560075 -174.319259 
L 239.906475 -169.817609 
L 222.252875 -159.450209 
L 204.599275 -150.008812 
L 186.945675 -140.221273 
L 169.292075 -134.20202 
L 151.638475 -125.285562 
L 133.984875 -114.084664 
L 116.331275 -107.753526 
L 98.677675 -95.522529 
L 81.024075 -87.780388 
L 63.370475 -79.023453 
L 45.716875 -68.971635 
z
" style="stroke: #4caf50; stroke-opacity: 0.1"/>
    </defs>
    <g clip-path="url(#p0820758f53)">
     <use xlink:href="#m2e93f0f697" x="0" y="369.891875" style="fill: #4caf50; fill-opacity: 0.1; stroke: #4caf50; stroke-opacity: 0.1"/>
    </g>
   </g>
   <g id="FillBetweenPolyCollection_3">
    <defs>
     <path id="m289712d860" d="M 45.716875 -70.002926 
L 45.716875 -62.285183 
L 63.370475 -72.837914 
L 81.024075 -80.860179 
L 98.677675 -87.957808 
L 116.331275 -97.764674 
L 133.984875 -104.264828 
L 151.638475 -111.816629 
L 169.292075 -120.167492 
L 186.945675 -126.053574 
L 204.599275 -134.414046 
L 222.252875 -141.583642 
L 239.906475 -150.214176 
L 257.560075 -154.0349 
L 275.213675 -159.354576 
L 292.867275 -167.054414 
L 310.520875 -177.367535 
L 328.174475 -184.824338 
L 345.828075 -194.242863 
L 363.481675 -203.691612 
L 381.135275 -211.106756 
L 398.788875 -218.703543 
L 416.442475 -228.147479 
L 434.096075 -237.481191 
L 451.749675 -249.648555 
L 469.403275 -262.955829 
L 487.056875 -275.347113 
L 487.056875 -275.347113 
L 487.056875 -275.347113 
L 469.403275 -265.639 
L 451.749675 -253.850468 
L 434.096075 -241.746336 
L 416.442475 -234.032094 
L 398.788875 -226.326137 
L 381.135275 -218.991076 
L 363.481675 -212.202076 
L 345.828075 -203.042896 
L 328.174475 -194.216213 
L 310.520875 -188.344574 
L 292.867275 -180.295549 
L 275.213675 -173.760032 
L 257.560075 -168.111501 
L 239.906475 -164.142588 
L 222.252875 -156.192686 
L 204.599275 -149.089536 
L 186.945675 -140.707915 
L 169.292075 -134.580545 
L 151.638475 -126.881096 
L 133.984875 -119.579722 
L 116.331275 -114.298016 
L 98.677675 -103.842615 
L 81.024075 -94.509242 
L 63.370475 -83.843635 
L 45.716875 -70.002926 
z
" style="stroke: #ff9800; stroke-opacity: 0.1"/>
    </defs>
    <g clip-path="url(#p0820758f53)">
     <use xlink:href="#m289712d860" x="0" y="369.891875" style="fill: #ff9800; fill-opacity: 0.1; stroke: #ff9800; stroke-opacity: 0.1"/>
    </g>
   </g>
   <g id="matplotlib.axis_1">
    <g id="xtick_1">
     <g id="line2d_1">
      <path d="M 45.716875 330.4 
L 45.716875 82.752 
" clip-path="url(#p0820758f53)" style="fill: none; stroke: #b0b0b0; stroke-opacity: 0.3; stroke-width: 0.8; stroke-linecap: square"/>
     </g>
     <g id="line2d_2">
      <defs>
       <path id="m2f8ae6303b" d="M 0 0 
L 0 3.5 
" style="stroke: #000000; stroke-width: 0.8"/>
      </defs>
      <g>
       <use xlink:href="#m2f8ae6303b" x="45.716875" y="330.4" style="stroke: #000000; stroke-width: 0.8"/>
      </g>
     </g>
     <g id="text_1">
      <!-- 0 -->
      <g transform="translate(42.535625 344.998437) scale(0.1 -0.1)">
       <defs>
        <path id="DejaVuSans-30" d="M 2034 4250 
Q 1547 4250 1301 3770 
Q 1056 3291 1056 2328 
Q 1056 1369 1301 889 
Q 1547 409 2034 409 
Q 2525 409 2770 889 
Q 3016 1369 3016 2328 
Q 3016 3291 2770 3770 
Q 2525 4250 2034 4250 
z
M 2034 4750 
Q 2819 4750 3233 4129 
Q 3647 3509 3647 2328 
Q 3647 1150 3233 529 
Q 2819 -91 2034 -91 
Q 1250 -91 836 529 
Q 422 1150 422 2328 
Q 422 3509 836 4129 
Q 1250 4750 2034 4750 
z
" transform="scale(0.015625)"/>
       </defs>
       <use xlink:href="#DejaVuSans-30"/>
      </g>
     </g>
    </g>
    <g id="xtick_2">
     <g id="line2d_3">
      <path d="M 133.984875 330.4 
L 133.984875 82.752 
" clip-path="url(#p0820758f53)" style="fill: none; stroke: #b0b0b0; stroke-opacity: 0.3; stroke-width: 0.8; stroke-linecap: square"/>
     </g>
     <g id="line2d_4">
      <g>
       <use xlink:href="#m2f8ae6303b" x="133.984875" y="330.4" style="stroke: #000000; stroke-width: 0.8"/>
      </g>
     </g>
     <g id="text_2">
      <!-- 5 -->
      <g transform="translate(130.803625 344.998437) scale(0.1 -0.1)">
       <defs>
        <path id="DejaVuSans-35" d="M 691 4666 
L 3169 4666 
L 3169 4134 
L 1269 4134 
L 1269 2991 
Q 1406 3038 1543 3061 
Q 1681 3084 1819 3084 
Q 2600 3084 3056 2656 
Q 3513 2228 3513 1497 
Q 3513 744 3044 326 
Q 2575 -91 1722 -91 
Q 1428 -91 1123 -41 
Q 819 9 494 109 
L 494 744 
Q 775 591 1075 516 
Q 1375 441 1709 441 
Q 2250 441 2565 725 
Q 2881 1009 2881 1497 
Q 2881 1984 2565 2268 
Q 2250 2553 1709 2553 
Q 1456 2553 1204 2497 
Q 953 2441 691 2322 
L 691 4666 
z
" transform="scale(0.015625)"/>
       </defs>
       <use xlink:href="#DejaVuSans-35"/>
      </g>
     </g>
    </g>
    <g id="xtick_3">
     <g id="line2d_5">
      <path d="M 222.252875 330.4 
L 222.252875 82.752 
" clip-path="url(#p0820758f53)" style="fill: none; stroke: #b0b0b0; stroke-opacity: 0.3; stroke-width: 0.8; stroke-linecap: square"/>
     </g>
     <g id="line2d_6">
      <g>
       <use xlink:href="#m2f8ae6303b" x="222.252875" y="330.4" style="stroke: #000000; stroke-width: 0.8"/>
      </g>
     </g>
     <g id="text_3">
      <!-- 10 -->
      <g transform="translate(215.890375 344.998437) scale(0.1 -0.1)">
       <defs>
        <path id="DejaVuSans-31" d="M 794 531 
L 1825 531 
L 1825 4091 
L 703 3866 
L 703 4441 
L 1819 4666 
L 2450 4666 
L 2450 531 
L 3481 531 
L 3481 0 
L 794 0 
L 794 531 
z
" transform="scale(0.015625)"/>
       </defs>
       <use xlink:href="#DejaVuSans-31"/>
       <use xlink:href="#DejaVuSans-30" transform="translate(63.623047 0)"/>
      </g>
     </g>
    </g>
    <g id="xtick_4">
     <g id="line2d_7">
      <path d="M 310.520875 330.4 
L 310.520875 82.752 
" clip-path="url(#p0820758f53)" style="fill: none; stroke: #b0b0b0; stroke-opacity: 0.3; stroke-width: 0.8; stroke-linecap: square"/>
     </g>
     <g id="line2d_8">
      <g>
       <use xlink:href="#m2f8ae6303b" x="310.520875" y="330.4" style="stroke: #000000; stroke-width: 0.8"/>
      </g>
     </g>
     <g id="text_4">
      <!-- 15 -->
      <g transform="translate(304.158375 344.998437) scale(0.1 -0.1)">
       <use xlink:href="#DejaVuSans-31"/>
       <use xlink:href="#DejaVuSans-35" transform="translate(63.623047 0)"/>
      </g>
     </g>
    </g>
    <g id="xtick_5">
     <g id="line2d_9">
      <path d="M 398.788875 330.4 
L 398.788875 82.752 
" clip-path="url(#p0820758f53)" style="fill: none; stroke: #b0b0b0; stroke-opacity: 0.3; stroke-width: 0.8; stroke-linecap: square"/>
     </g>
     <g id="line2d_10">
      <g>
       <use xlink:href="#m2f8ae6303b" x="398.788875" y="330.4" style="stroke: #000000; stroke-width: 0.8"/>
      </g>
     </g>
     <g id="text_5">
      <!-- 20 -->
      <g transform="translate(392.426375 344.998437) scale(0.1 -0.1)">
       <defs>
        <path id="DejaVuSans-32" d="M 1228 531 
L 3431 531 
L 3431 0 
L 469 0 
L 469 531 
Q 828 903 1448 1529 
Q 2069 2156 2228 2338 
Q 2531 2678 2651 2914 
Q 2772 3150 2772 3378 
Q 2772 3750 2511 3984 
Q 2250 4219 1831 4219 
Q 1534 4219 1204 4116 
Q 875 4013 500 3803 
L 500 4441 
Q 881 4594 1212 4672 
Q 1544 4750 1819 4750 
Q 2544 4750 2975 4387 
Q 3406 4025 3406 3419 
Q 3406 3131 3298 2873 
Q 3191 2616 2906 2266 
Q 2828 2175 2409 1742 
Q 1991 1309 1228 531 
z
" transform="scale(0.015625)"/>
       </defs>
       <use xlink:href="#DejaVuSans-32"/>
       <use xlink:href="#DejaVuSans-30" transform="translate(63.623047 0)"/>
      </g>
     </g>
    </g>
    <g id="xtick_6">
     <g id="line2d_11">
      <path d="M 487.056875 330.4 
L 487.056875 82.752 
" clip-path="url(#p0820758f53)" style="fill: none; stroke: #b0b0b0; stroke-opacity: 0.3; stroke-width: 0.8; stroke-linecap: square"/>
     </g>
     <g id="line2d_12">
      <g>
       <use xlink:href="#m2f8ae6303b" x="487.056875" y="330.4" style="stroke: #000000; stroke-width: 0.8"/>
      </g>
     </g>
     <g id="text_6">
      <!-- 25 -->
      <g transform="translate(480.694375 344.998437) scale(0.1 -0.1)">
       <use xlink:href="#DejaVuSans-32"/>
       <use xlink:href="#DejaVuSans-35" transform="translate(63.623047 0)"/>
      </g>
     </g>
    </g>
    <g id="text_7">
     <!-- Layer -->
     <g transform="translate(249.657188 360.19625) scale(0.12 -0.12)">
      <defs>
       <path id="DejaVuSans-4c" d="M 628 4666 
L 1259 4666 
L 1259 531 
L 3531 531 
L 3531 0 
L 628 0 
L 628 4666 
z
" transform="scale(0.015625)"/>
       <path id="DejaVuSans-61" d="M 2194 1759 
Q 1497 1759 1228 1600 
Q 959 1441 959 1056 
Q 959 750 1161 570 
Q 1363 391 1709 391 
Q 2188 391 2477 730 
Q 2766 1069 2766 1631 
L 2766 1759 
L 2194 1759 
z
M 3341 1997 
L 3341 0 
L 2766 0 
L 2766 531 
Q 2569 213 2275 61 
Q 1981 -91 1556 -91 
Q 1019 -91 701 211 
Q 384 513 384 1019 
Q 384 1609 779 1909 
Q 1175 2209 1959 2209 
L 2766 2209 
L 2766 2266 
Q 2766 2663 2505 2880 
Q 2244 3097 1772 3097 
Q 1472 3097 1187 3025 
Q 903 2953 641 2809 
L 641 3341 
Q 956 3463 1253 3523 
Q 1550 3584 1831 3584 
Q 2591 3584 2966 3190 
Q 3341 2797 3341 1997 
z
" transform="scale(0.015625)"/>
       <path id="DejaVuSans-79" d="M 2059 -325 
Q 1816 -950 1584 -1140 
Q 1353 -1331 966 -1331 
L 506 -1331 
L 506 -850 
L 844 -850 
Q 1081 -850 1212 -737 
Q 1344 -625 1503 -206 
L 1606 56 
L 191 3500 
L 800 3500 
L 1894 763 
L 2988 3500 
L 3597 3500 
L 2059 -325 
z
" transform="scale(0.015625)"/>
       <path id="DejaVuSans-65" d="M 3597 1894 
L 3597 1613 
L 953 1613 
Q 991 1019 1311 708 
Q 1631 397 2203 397 
Q 2534 397 2845 478 
Q 3156 559 3463 722 
L 3463 178 
Q 3153 47 2828 -22 
Q 2503 -91 2169 -91 
Q 1331 -91 842 396 
Q 353 884 353 1716 
Q 353 2575 817 3079 
Q 1281 3584 2069 3584 
Q 2775 3584 3186 3129 
Q 3597 2675 3597 1894 
z
M 3022 2063 
Q 3016 2534 2758 2815 
Q 2500 3097 2075 3097 
Q 1594 3097 1305 2825 
Q 1016 2553 972 2059 
L 3022 2063 
z
" transform="scale(0.015625)"/>
       <path id="DejaVuSans-72" d="M 2631 2963 
Q 2534 3019 2420 3045 
Q 2306 3072 2169 3072 
Q 1681 3072 1420 2755 
Q 1159 2438 1159 1844 
L 1159 0 
L 581 0 
L 581 3500 
L 1159 3500 
L 1159 2956 
Q 1341 3275 1631 3429 
Q 1922 3584 2338 3584 
Q 2397 3584 2469 3576 
Q 2541 3569 2628 3553 
L 2631 2963 
z
" transform="scale(0.015625)"/>
      </defs>
      <use xlink:href="#DejaVuSans-4c"/>
      <use xlink:href="#DejaVuSans-61" transform="translate(55.712891 0)"/>
      <use xlink:href="#DejaVuSans-79" transform="translate(116.992188 0)"/>
      <use xlink:href="#DejaVuSans-65" transform="translate(176.171875 0)"/>
      <use xlink:href="#DejaVuSans-72" transform="translate(237.695312 0)"/>
     </g>
    </g>
   </g>
   <g id="matplotlib.axis_2">
    <g id="ytick_1">
     <g id="line2d_13">
      <path d="M 45.716875 330.4 
L 487.056875 330.4 
" clip-path="url(#p0820758f53)" style="fill: none; stroke: #b0b0b0; stroke-opacity: 0.3; stroke-width: 0.8; stroke-linecap: square"/>
     </g>
     <g id="line2d_14">
      <defs>
       <path id="m17674e4fce" d="M 0 0 
L -3.5 0 
" style="stroke: #000000; stroke-width: 0.8"/>
      </defs>
      <g>
       <use xlink:href="#m17674e4fce" x="45.716875" y="330.4" style="stroke: #000000; stroke-width: 0.8"/>
      </g>
     </g>
     <g id="text_8">
      <!-- 0.0 -->
      <g transform="translate(22.81375 334.199219) scale(0.1 -0.1)">
       <defs>
        <path id="DejaVuSans-2e" d="M 684 794 
L 1344 794 
L 1344 0 
L 684 0 
L 684 794 
z
" transform="scale(0.015625)"/>
       </defs>
       <use xlink:href="#DejaVuSans-30"/>
       <use xlink:href="#DejaVuSans-2e" transform="translate(63.623047 0)"/>
       <use xlink:href="#DejaVuSans-30" transform="translate(95.410156 0)"/>
      </g>
     </g>
    </g>
    <g id="ytick_2">
     <g id="line2d_15">
      <path d="M 45.716875 283.228952 
L 487.056875 283.228952 
" clip-path="url(#p0820758f53)" style="fill: none; stroke: #b0b0b0; stroke-opacity: 0.3; stroke-width: 0.8; stroke-linecap: square"/>
     </g>
     <g id="line2d_16">
      <g>
       <use xlink:href="#m17674e4fce" x="45.716875" y="283.228952" style="stroke: #000000; stroke-width: 0.8"/>
      </g>
     </g>
     <g id="text_9">
      <!-- 0.2 -->
      <g transform="translate(22.81375 287.028171) scale(0.1 -0.1)">
       <use xlink:href="#DejaVuSans-30"/>
       <use xlink:href="#DejaVuSans-2e" transform="translate(63.623047 0)"/>
       <use xlink:href="#DejaVuSans-32" transform="translate(95.410156 0)"/>
      </g>
     </g>
    </g>
    <g id="ytick_3">
     <g id="line2d_17">
      <path d="M 45.716875 236.057905 
L 487.056875 236.057905 
" clip-path="url(#p0820758f53)" style="fill: none; stroke: #b0b0b0; stroke-opacity: 0.3; stroke-width: 0.8; stroke-linecap: square"/>
     </g>
     <g id="line2d_18">
      <g>
       <use xlink:href="#m17674e4fce" x="45.716875" y="236.057905" style="stroke: #000000; stroke-width: 0.8"/>
      </g>
     </g>
     <g id="text_10">
      <!-- 0.4 -->
      <g transform="translate(22.81375 239.857124) scale(0.1 -0.1)">
       <defs>
        <path id="DejaVuSans-34" d="M 2419 4116 
L 825 1625 
L 2419 1625 
L 2419 4116 
z
M 2253 4666 
L 3047 4666 
L 3047 1625 
L 3713 1625 
L 3713 1100 
L 3047 1100 
L 3047 0 
L 2419 0 
L 2419 1100 
L 313 1100 
L 313 1709 
L 2253 4666 
z
" transform="scale(0.015625)"/>
       </defs>
       <use xlink:href="#DejaVuSans-30"/>
       <use xlink:href="#DejaVuSans-2e" transform="translate(63.623047 0)"/>
       <use xlink:href="#DejaVuSans-34" transform="translate(95.410156 0)"/>
      </g>
     </g>
    </g>
    <g id="ytick_4">
     <g id="line2d_19">
      <path d="M 45.716875 188.886857 
L 487.056875 188.886857 
" clip-path="url(#p0820758f53)" style="fill: none; stroke: #b0b0b0; stroke-opacity: 0.3; stroke-width: 0.8; stroke-linecap: square"/>
     </g>
     <g id="line2d_20">
      <g>
       <use xlink:href="#m17674e4fce" x="45.716875" y="188.886857" style="stroke: #000000; stroke-width: 0.8"/>
      </g>
     </g>
     <g id="text_11">
      <!-- 0.6 -->
      <g transform="translate(22.81375 192.686076) scale(0.1 -0.1)">
       <defs>
        <path id="DejaVuSans-36" d="M 2113 2584 
Q 1688 2584 1439 2293 
Q 1191 2003 1191 1497 
Q 1191 994 1439 701 
Q 1688 409 2113 409 
Q 2538 409 2786 701 
Q 3034 994 3034 1497 
Q 3034 2003 2786 2293 
Q 2538 2584 2113 2584 
z
M 3366 4563 
L 3366 3988 
Q 3128 4100 2886 4159 
Q 2644 4219 2406 4219 
Q 1781 4219 1451 3797 
Q 1122 3375 1075 2522 
Q 1259 2794 1537 2939 
Q 1816 3084 2150 3084 
Q 2853 3084 3261 2657 
Q 3669 2231 3669 1497 
Q 3669 778 3244 343 
Q 2819 -91 2113 -91 
Q 1303 -91 875 529 
Q 447 1150 447 2328 
Q 447 3434 972 4092 
Q 1497 4750 2381 4750 
Q 2619 4750 2861 4703 
Q 3103 4656 3366 4563 
z
" transform="scale(0.015625)"/>
       </defs>
       <use xlink:href="#DejaVuSans-30"/>
       <use xlink:href="#DejaVuSans-2e" transform="translate(63.623047 0)"/>
       <use xlink:href="#DejaVuSans-36" transform="translate(95.410156 0)"/>
      </g>
     </g>
    </g>
    <g id="ytick_5">
     <g id="line2d_21">
      <path d="M 45.716875 141.71581 
L 487.056875 141.71581 
" clip-path="url(#p0820758f53)" style="fill: none; stroke: #b0b0b0; stroke-opacity: 0.3; stroke-width: 0.8; stroke-linecap: square"/>
     </g>
     <g id="line2d_22">
      <g>
       <use xlink:href="#m17674e4fce" x="45.716875" y="141.71581" style="stroke: #000000; stroke-width: 0.8"/>
      </g>
     </g>
     <g id="text_12">
      <!-- 0.8 -->
      <g transform="translate(22.81375 145.515028) scale(0.1 -0.1)">
       <defs>
        <path id="DejaVuSans-38" d="M 2034 2216 
Q 1584 2216 1326 1975 
Q 1069 1734 1069 1313 
Q 1069 891 1326 650 
Q 1584 409 2034 409 
Q 2484 409 2743 651 
Q 3003 894 3003 1313 
Q 3003 1734 2745 1975 
Q 2488 2216 2034 2216 
z
M 1403 2484 
Q 997 2584 770 2862 
Q 544 3141 544 3541 
Q 544 4100 942 4425 
Q 1341 4750 2034 4750 
Q 2731 4750 3128 4425 
Q 3525 4100 3525 3541 
Q 3525 3141 3298 2862 
Q 3072 2584 2669 2484 
Q 3125 2378 3379 2068 
Q 3634 1759 3634 1313 
Q 3634 634 3220 271 
Q 2806 -91 2034 -91 
Q 1263 -91 848 271 
Q 434 634 434 1313 
Q 434 1759 690 2068 
Q 947 2378 1403 2484 
z
M 1172 3481 
Q 1172 3119 1398 2916 
Q 1625 2713 2034 2713 
Q 2441 2713 2670 2916 
Q 2900 3119 2900 3481 
Q 2900 3844 2670 4047 
Q 2441 4250 2034 4250 
Q 1625 4250 1398 4047 
Q 1172 3844 1172 3481 
z
" transform="scale(0.015625)"/>
       </defs>
       <use xlink:href="#DejaVuSans-30"/>
       <use xlink:href="#DejaVuSans-2e" transform="translate(63.623047 0)"/>
       <use xlink:href="#DejaVuSans-38" transform="translate(95.410156 0)"/>
      </g>
     </g>
    </g>
    <g id="ytick_6">
     <g id="line2d_23">
      <path d="M 45.716875 94.544762 
L 487.056875 94.544762 
" clip-path="url(#p0820758f53)" style="fill: none; stroke: #b0b0b0; stroke-opacity: 0.3; stroke-width: 0.8; stroke-linecap: square"/>
     </g>
     <g id="line2d_24">
      <g>
       <use xlink:href="#m17674e4fce" x="45.716875" y="94.544762" style="stroke: #000000; stroke-width: 0.8"/>
      </g>
     </g>
     <g id="text_13">
      <!-- 1.0 -->
      <g transform="translate(22.81375 98.343981) scale(0.1 -0.1)">
       <use xlink:href="#DejaVuSans-31"/>
       <use xlink:href="#DejaVuSans-2e" transform="translate(63.623047 0)"/>
       <use xlink:href="#DejaVuSans-30" transform="translate(95.410156 0)"/>
      </g>
     </g>
    </g>
    <g id="text_14">
     <!-- Cumulative Energy Fraction -->
     <g transform="translate(16.318125 289.5935) rotate(-90) scale(0.12 -0.12)">
      <defs>
       <path id="DejaVuSans-43" d="M 4122 4306 
L 4122 3641 
Q 3803 3938 3442 4084 
Q 3081 4231 2675 4231 
Q 1875 4231 1450 3742 
Q 1025 3253 1025 2328 
Q 1025 1406 1450 917 
Q 1875 428 2675 428 
Q 3081 428 3442 575 
Q 3803 722 4122 1019 
L 4122 359 
Q 3791 134 3420 21 
Q 3050 -91 2638 -91 
Q 1578 -91 968 557 
Q 359 1206 359 2328 
Q 359 3453 968 4101 
Q 1578 4750 2638 4750 
Q 3056 4750 3426 4639 
Q 3797 4528 4122 4306 
z
" transform="scale(0.015625)"/>
       <path id="DejaVuSans-75" d="M 544 1381 
L 544 3500 
L 1119 3500 
L 1119 1403 
Q 1119 906 1312 657 
Q 1506 409 1894 409 
Q 2359 409 2629 706 
Q 2900 1003 2900 1516 
L 2900 3500 
L 3475 3500 
L 3475 0 
L 2900 0 
L 2900 538 
Q 2691 219 2414 64 
Q 2138 -91 1772 -91 
Q 1169 -91 856 284 
Q 544 659 544 1381 
z
M 1991 3584 
L 1991 3584 
z
" transform="scale(0.015625)"/>
       <path id="DejaVuSans-6d" d="M 3328 2828 
Q 3544 3216 3844 3400 
Q 4144 3584 4550 3584 
Q 5097 3584 5394 3201 
Q 5691 2819 5691 2113 
L 5691 0 
L 5113 0 
L 5113 2094 
Q 5113 2597 4934 2840 
Q 4756 3084 4391 3084 
Q 3944 3084 3684 2787 
Q 3425 2491 3425 1978 
L 3425 0 
L 2847 0 
L 2847 2094 
Q 2847 2600 2669 2842 
Q 2491 3084 2119 3084 
Q 1678 3084 1418 2786 
Q 1159 2488 1159 1978 
L 1159 0 
L 581 0 
L 581 3500 
L 1159 3500 
L 1159 2956 
Q 1356 3278 1631 3431 
Q 1906 3584 2284 3584 
Q 2666 3584 2933 3390 
Q 3200 3197 3328 2828 
z
" transform="scale(0.015625)"/>
       <path id="DejaVuSans-6c" d="M 603 4863 
L 1178 4863 
L 1178 0 
L 603 0 
L 603 4863 
z
" transform="scale(0.015625)"/>
       <path id="DejaVuSans-74" d="M 1172 4494 
L 1172 3500 
L 2356 3500 
L 2356 3053 
L 1172 3053 
L 1172 1153 
Q 1172 725 1289 603 
Q 1406 481 1766 481 
L 2356 481 
L 2356 0 
L 1766 0 
Q 1100 0 847 248 
Q 594 497 594 1153 
L 594 3053 
L 172 3053 
L 172 3500 
L 594 3500 
L 594 4494 
L 1172 4494 
z
" transform="scale(0.015625)"/>
       <path id="DejaVuSans-69" d="M 603 3500 
L 1178 3500 
L 1178 0 
L 603 0 
L 603 3500 
z
M 603 4863 
L 1178 4863 
L 1178 4134 
L 603 4134 
L 603 4863 
z
" transform="scale(0.015625)"/>
       <path id="DejaVuSans-76" d="M 191 3500 
L 800 3500 
L 1894 563 
L 2988 3500 
L 3597 3500 
L 2284 0 
L 1503 0 
L 191 3500 
z
" transform="scale(0.015625)"/>
       <path id="DejaVuSans-20" transform="scale(0.015625)"/>
       <path id="DejaVuSans-45" d="M 628 4666 
L 3578 4666 
L 3578 4134 
L 1259 4134 
L 1259 2753 
L 3481 2753 
L 3481 2222 
L 1259 2222 
L 1259 531 
L 3634 531 
L 3634 0 
L 628 0 
L 628 4666 
z
" transform="scale(0.015625)"/>
       <path id="DejaVuSans-6e" d="M 3513 2113 
L 3513 0 
L 2938 0 
L 2938 2094 
Q 2938 2591 2744 2837 
Q 2550 3084 2163 3084 
Q 1697 3084 1428 2787 
Q 1159 2491 1159 1978 
L 1159 0 
L 581 0 
L 581 3500 
L 1159 3500 
L 1159 2956 
Q 1366 3272 1645 3428 
Q 1925 3584 2291 3584 
Q 2894 3584 3203 3211 
Q 3513 2838 3513 2113 
z
" transform="scale(0.015625)"/>
       <path id="DejaVuSans-67" d="M 2906 1791 
Q 2906 2416 2648 2759 
Q 2391 3103 1925 3103 
Q 1463 3103 1205 2759 
Q 947 2416 947 1791 
Q 947 1169 1205 825 
Q 1463 481 1925 481 
Q 2391 481 2648 825 
Q 2906 1169 2906 1791 
z
M 3481 434 
Q 3481 -459 3084 -895 
Q 2688 -1331 1869 -1331 
Q 1566 -1331 1297 -1286 
Q 1028 -1241 775 -1147 
L 775 -588 
Q 1028 -725 1275 -790 
Q 1522 -856 1778 -856 
Q 2344 -856 2625 -561 
Q 2906 -266 2906 331 
L 2906 616 
Q 2728 306 2450 153 
Q 2172 0 1784 0 
Q 1141 0 747 490 
Q 353 981 353 1791 
Q 353 2603 747 3093 
Q 1141 3584 1784 3584 
Q 2172 3584 2450 3431 
Q 2728 3278 2906 2969 
L 2906 3500 
L 3481 3500 
L 3481 434 
z
" transform="scale(0.015625)"/>
       <path id="DejaVuSans-46" d="M 628 4666 
L 3309 4666 
L 3309 4134 
L 1259 4134 
L 1259 2759 
L 3109 2759 
L 3109 2228 
L 1259 2228 
L 1259 0 
L 628 0 
L 628 4666 
z
" transform="scale(0.015625)"/>
       <path id="DejaVuSans-63" d="M 3122 3366 
L 3122 2828 
Q 2878 2963 2633 3030 
Q 2388 3097 2138 3097 
Q 1578 3097 1268 2742 
Q 959 2388 959 1747 
Q 959 1106 1268 751 
Q 1578 397 2138 397 
Q 2388 397 2633 464 
Q 2878 531 3122 666 
L 3122 134 
Q 2881 22 2623 -34 
Q 2366 -91 2075 -91 
Q 1284 -91 818 406 
Q 353 903 353 1747 
Q 353 2603 823 3093 
Q 1294 3584 2113 3584 
Q 2378 3584 2631 3529 
Q 2884 3475 3122 3366 
z
" transform="scale(0.015625)"/>
       <path id="DejaVuSans-6f" d="M 1959 3097 
Q 1497 3097 1228 2736 
Q 959 2375 959 1747 
Q 959 1119 1226 758 
Q 1494 397 1959 397 
Q 2419 397 2687 759 
Q 2956 1122 2956 1747 
Q 2956 2369 2687 2733 
Q 2419 3097 1959 3097 
z
M 1959 3584 
Q 2709 3584 3137 3096 
Q 3566 2609 3566 1747 
Q 3566 888 3137 398 
Q 2709 -91 1959 -91 
Q 1206 -91 779 398 
Q 353 888 353 1747 
Q 353 2609 779 3096 
Q 1206 3584 1959 3584 
z
" transform="scale(0.015625)"/>
      </defs>
      <use xlink:href="#DejaVuSans-43"/>
      <use xlink:href="#DejaVuSans-75" transform="translate(69.824219 0)"/>
      <use xlink:href="#DejaVuSans-6d" transform="translate(133.203125 0)"/>
      <use xlink:href="#DejaVuSans-75" transform="translate(230.615234 0)"/>
      <use xlink:href="#DejaVuSans-6c" transform="translate(293.994141 0)"/>
      <use xlink:href="#DejaVuSans-61" transform="translate(321.777344 0)"/>
      <use xlink:href="#DejaVuSans-74" transform="translate(383.056641 0)"/>
      <use xlink:href="#DejaVuSans-69" transform="translate(422.265625 0)"/>
      <use xlink:href="#DejaVuSans-76" transform="translate(450.048828 0)"/>
      <use xlink:href="#DejaVuSans-65" transform="translate(509.228516 0)"/>
      <use xlink:href="#DejaVuSans-20" transform="translate(570.751953 0)"/>
      <use xlink:href="#DejaVuSans-45" transform="translate(602.539062 0)"/>
      <use xlink:href="#DejaVuSans-6e" transform="translate(665.722656 0)"/>
      <use xlink:href="#DejaVuSans-65" transform="translate(729.101562 0)"/>
      <use xlink:href="#DejaVuSans-72" transform="translate(790.625 0)"/>
      <use xlink:href="#DejaVuSans-67" transform="translate(829.988281 0)"/>
      <use xlink:href="#DejaVuSans-79" transform="translate(893.464844 0)"/>
      <use xlink:href="#DejaVuSans-20" transform="translate(952.644531 0)"/>
      <use xlink:href="#DejaVuSans-46" transform="translate(984.431641 0)"/>
      <use xlink:href="#DejaVuSans-72" transform="translate(1034.701172 0)"/>
      <use xlink:href="#DejaVuSans-61" transform="translate(1075.814453 0)"/>
      <use xlink:href="#DejaVuSans-63" transform="translate(1137.09375 0)"/>
      <use xlink:href="#DejaVuSans-74" transform="translate(1192.074219 0)"/>
      <use xlink:href="#DejaVuSans-69" transform="translate(1231.283203 0)"/>
      <use xlink:href="#DejaVuSans-6f" transform="translate(1259.066406 0)"/>
      <use xlink:href="#DejaVuSans-6e" transform="translate(1320.248047 0)"/>
     </g>
    </g>
   </g>
   <g id="line2d_25">
    <path d="M 45.716875 299.072631 
L 63.370475 285.090508 
L 81.024075 278.455786 
L 98.677675 268.725263 
L 116.331275 258.694592 
L 133.984875 254.414795 
L 151.638475 247.302915 
L 169.292075 238.924414 
L 186.945675 231.723167 
L 204.599275 221.380858 
L 222.252875 213.678273 
L 239.906475 206.536935 
L 257.560075 202.675601 
L 275.213675 197.636691 
L 292.867275 190.572879 
L 310.520875 180.84422 
L 328.174475 174.104227 
L 345.828075 164.470742 
L 363.481675 157.296992 
L 381.135275 150.504917 
L 398.788875 144.837715 
L 416.442475 139.463311 
L 434.096075 133.020646 
L 451.749675 124.638397 
L 469.403275 109.672337 
L 487.056875 94.544762 
" clip-path="url(#p0820758f53)" style="fill: none; stroke: #2196f3; stroke-width: 2; stroke-linecap: square"/>
   </g>
   <g id="line2d_26">
    <path d="M 234.610395 330.4 
L 234.610395 82.752 
" clip-path="url(#p0820758f53)" style="fill: none; stroke-dasharray: 3.7,1.6; stroke-dashoffset: 0; stroke: #2196f3; stroke-opacity: 0.5"/>
   </g>
   <g id="line2d_27">
    <path d="M 45.716875 301.872801 
L 63.370475 292.722179 
L 81.024075 284.440486 
L 98.677675 276.892911 
L 116.331275 264.482277 
L 133.984875 258.237622 
L 151.638475 247.096114 
L 169.292075 238.139765 
L 186.945675 232.06758 
L 204.599275 221.932564 
L 222.252875 212.313818 
L 239.906475 201.890643 
L 257.560075 197.481304 
L 275.213675 193.531008 
L 292.867275 185.214631 
L 310.520875 172.675186 
L 328.174475 168.422651 
L 345.828075 159.611655 
L 363.481675 154.378018 
L 381.135275 147.422158 
L 398.788875 142.338016 
L 416.442475 134.93458 
L 434.096075 128.945582 
L 451.749675 120.390539 
L 469.403275 107.698233 
L 487.056875 94.544762 
" clip-path="url(#p0820758f53)" style="fill: none; stroke: #4caf50; stroke-width: 2; stroke-linecap: square"/>
   </g>
   <g id="line2d_28">
    <path d="M 229.314315 330.4 
L 229.314315 82.752 
" clip-path="url(#p0820758f53)" style="fill: none; stroke-dasharray: 3.7,1.6; stroke-dashoffset: 0; stroke: #4caf50; stroke-opacity: 0.5"/>
   </g>
   <g id="line2d_29">
    <path d="M 45.716875 303.747821 
L 63.370475 291.5511 
L 81.024075 282.207165 
L 98.677675 273.991664 
L 116.331275 263.86053 
L 133.984875 257.9696 
L 151.638475 250.543012 
L 169.292075 242.517856 
L 186.945675 236.51113 
L 204.599275 228.140084 
L 222.252875 221.003711 
L 239.906475 212.713493 
L 257.560075 208.818675 
L 275.213675 203.334571 
L 292.867275 196.216893 
L 310.520875 187.035821 
L 328.174475 180.371599 
L 345.828075 171.248996 
L 363.481675 161.945031 
L 381.135275 154.842959 
L 398.788875 147.377035 
L 416.442475 138.802089 
L 434.096075 130.278111 
L 451.749675 118.142364 
L 469.403275 105.59446 
L 487.056875 94.544762 
" clip-path="url(#p0820758f53)" style="fill: none; stroke: #ff9800; stroke-width: 2; stroke-linecap: square"/>
   </g>
   <g id="line2d_30">
    <path d="M 255.794715 330.4 
L 255.794715 82.752 
" clip-path="url(#p0820758f53)" style="fill: none; stroke-dasharray: 3.7,1.6; stroke-dashoffset: 0; stroke: #ff9800; stroke-opacity: 0.5"/>
   </g>
   <g id="line2d_31">
    <path d="M 45.716875 212.472381 
L 487.056875 212.472381 
" clip-path="url(#p0820758f53)" style="fill: none; stroke-dasharray: 1,1.65; stroke-dashoffset: 0; stroke: #808080; stroke-opacity: 0.5"/>
   </g>
   <g id="line2d_32">
    <path d="M 45.716875 118.130286 
L 487.056875 118.130286 
" clip-path="url(#p0820758f53)" style="fill: none; stroke-dasharray: 1,1.65; stroke-dashoffset: 0; stroke: #808080; stroke-opacity: 0.5"/>
   </g>
   <g id="patch_3">
    <path d="M 45.716875 330.4 
L 45.716875 82.752 
" style="fill: none; stroke: #000000; stroke-width: 0.8; stroke-linejoin: miter; stroke-linecap: square"/>
   </g>
   <g id="patch_4">
    <path d="M 487.056875 330.4 
L 487.056875 82.752 
" style="fill: none; stroke: #000000; stroke-width: 0.8; stroke-linejoin: miter; stroke-linecap: square"/>
   </g>
   <g id="patch_5">
    <path d="M 45.716875 330.4 
L 487.056875 330.4 
" style="fill: none; stroke: #000000; stroke-width: 0.8; stroke-linejoin: miter; stroke-linecap: square"/>
   </g>
   <g id="patch_6">
    <path d="M 45.716875 82.752 
L 487.056875 82.752 
" style="fill: none; stroke: #000000; stroke-width: 0.8; stroke-linejoin: miter; stroke-linecap: square"/>
   </g>
   <g id="text_15">
    <!-- 50% -->
    <g style="fill: #808080" transform="translate(266.386875 207.755276) scale(0.08 -0.08)">
     <defs>
      <path id="DejaVuSans-25" d="M 4653 2053 
Q 4381 2053 4226 1822 
Q 4072 1591 4072 1178 
Q 4072 772 4226 539 
Q 4381 306 4653 306 
Q 4919 306 5073 539 
Q 5228 772 5228 1178 
Q 5228 1588 5073 1820 
Q 4919 2053 4653 2053 
z
M 4653 2450 
Q 5147 2450 5437 2106 
Q 5728 1763 5728 1178 
Q 5728 594 5436 251 
Q 5144 -91 4653 -91 
Q 4153 -91 3862 251 
Q 3572 594 3572 1178 
Q 3572 1766 3864 2108 
Q 4156 2450 4653 2450 
z
M 1428 4353 
Q 1159 4353 1004 4120 
Q 850 3888 850 3481 
Q 850 3069 1003 2837 
Q 1156 2606 1428 2606 
Q 1700 2606 1854 2837 
Q 2009 3069 2009 3481 
Q 2009 3884 1853 4118 
Q 1697 4353 1428 4353 
z
M 4250 4750 
L 4750 4750 
L 1831 -91 
L 1331 -91 
L 4250 4750 
z
M 1428 4750 
Q 1922 4750 2215 4408 
Q 2509 4066 2509 3481 
Q 2509 2891 2217 2550 
Q 1925 2209 1428 2209 
Q 931 2209 642 2551 
Q 353 2894 353 3481 
Q 353 4063 643 4406 
Q 934 4750 1428 4750 
z
" transform="scale(0.015625)"/>
     </defs>
     <use xlink:href="#DejaVuSans-35"/>
     <use xlink:href="#DejaVuSans-30" transform="translate(63.623047 0)"/>
     <use xlink:href="#DejaVuSans-25" transform="translate(127.246094 0)"/>
    </g>
   </g>
   <g id="text_16">
    <!-- 90% -->
    <g style="fill: #808080" transform="translate(266.386875 113.413181) scale(0.08 -0.08)">
     <defs>
      <path id="DejaVuSans-39" d="M 703 97 
L 703 672 
Q 941 559 1184 500 
Q 1428 441 1663 441 
Q 2288 441 2617 861 
Q 2947 1281 2994 2138 
Q 2813 1869 2534 1725 
Q 2256 1581 1919 1581 
Q 1219 1581 811 2004 
Q 403 2428 403 3163 
Q 403 3881 828 4315 
Q 1253 4750 1959 4750 
Q 2769 4750 3195 4129 
Q 3622 3509 3622 2328 
Q 3622 1225 3098 567 
Q 2575 -91 1691 -91 
Q 1453 -91 1209 -44 
Q 966 3 703 97 
z
M 1959 2075 
Q 2384 2075 2632 2365 
Q 2881 2656 2881 3163 
Q 2881 3666 2632 3958 
Q 2384 4250 1959 4250 
Q 1534 4250 1286 3958 
Q 1038 3666 1038 3163 
Q 1038 2656 1286 2365 
Q 1534 2075 1959 2075 
z
" transform="scale(0.015625)"/>
     </defs>
     <use xlink:href="#DejaVuSans-39"/>
     <use xlink:href="#DejaVuSans-30" transform="translate(63.623047 0)"/>
     <use xlink:href="#DejaVuSans-25" transform="translate(127.246094 0)"/>
    </g>
   </g>
   <g id="text_17">
    <!-- GEMMA-2-2B -->
    <g transform="translate(224.305469 76.752) scale(0.13 -0.13)">
     <defs>
      <path id="DejaVuSans-47" d="M 3809 666 
L 3809 1919 
L 2778 1919 
L 2778 2438 
L 4434 2438 
L 4434 434 
Q 4069 175 3628 42 
Q 3188 -91 2688 -91 
Q 1594 -91 976 548 
Q 359 1188 359 2328 
Q 359 3472 976 4111 
Q 1594 4750 2688 4750 
Q 3144 4750 3555 4637 
Q 3966 4525 4313 4306 
L 4313 3634 
Q 3963 3931 3569 4081 
Q 3175 4231 2741 4231 
Q 1884 4231 1454 3753 
Q 1025 3275 1025 2328 
Q 1025 1384 1454 906 
Q 1884 428 2741 428 
Q 3075 428 3337 486 
Q 3600 544 3809 666 
z
" transform="scale(0.015625)"/>
      <path id="DejaVuSans-4d" d="M 628 4666 
L 1569 4666 
L 2759 1491 
L 3956 4666 
L 4897 4666 
L 4897 0 
L 4281 0 
L 4281 4097 
L 3078 897 
L 2444 897 
L 1241 4097 
L 1241 0 
L 628 0 
L 628 4666 
z
" transform="scale(0.015625)"/>
      <path id="DejaVuSans-41" d="M 2188 4044 
L 1331 1722 
L 3047 1722 
L 2188 4044 
z
M 1831 4666 
L 2547 4666 
L 4325 0 
L 3669 0 
L 3244 1197 
L 1141 1197 
L 716 0 
L 50 0 
L 1831 4666 
z
" transform="scale(0.015625)"/>
      <path id="DejaVuSans-2d" d="M 313 2009 
L 1997 2009 
L 1997 1497 
L 313 1497 
L 313 2009 
z
" transform="scale(0.015625)"/>
      <path id="DejaVuSans-42" d="M 1259 2228 
L 1259 519 
L 2272 519 
Q 2781 519 3026 730 
Q 3272 941 3272 1375 
Q 3272 1813 3026 2020 
Q 2781 2228 2272 2228 
L 1259 2228 
z
M 1259 4147 
L 1259 2741 
L 2194 2741 
Q 2656 2741 2882 2914 
Q 3109 3088 3109 3444 
Q 3109 3797 2882 3972 
Q 2656 4147 2194 4147 
L 1259 4147 
z
M 628 4666 
L 2241 4666 
Q 2963 4666 3353 4366 
Q 3744 4066 3744 3513 
Q 3744 3084 3544 2831 
Q 3344 2578 2956 2516 
Q 3422 2416 3680 2098 
Q 3938 1781 3938 1306 
Q 3938 681 3513 340 
Q 3088 0 2303 0 
L 628 0 
L 628 4666 
z
" transform="scale(0.015625)"/>
     </defs>
     <use xlink:href="#DejaVuSans-47"/>
     <use xlink:href="#DejaVuSans-45" transform="translate(77.490234 0)"/>
     <use xlink:href="#DejaVuSans-4d" transform="translate(140.673828 0)"/>
     <use xlink:href="#DejaVuSans-4d" transform="translate(226.953125 0)"/>
     <use xlink:href="#DejaVuSans-41" transform="translate(313.232422 0)"/>
     <use xlink:href="#DejaVuSans-2d" transform="translate(379.390625 0)"/>
     <use xlink:href="#DejaVuSans-32" transform="translate(415.474609 0)"/>
     <use xlink:href="#DejaVuSans-2d" transform="translate(479.097656 0)"/>
     <use xlink:href="#DejaVuSans-32" transform="translate(515.181641 0)"/>
     <use xlink:href="#DejaVuSans-42" transform="translate(578.804688 0)"/>
    </g>
   </g>
   <g id="legend_1">
    <g id="patch_7">
     <path d="M 392.844375 325.4 
L 480.056875 325.4 
Q 482.056875 325.4 482.056875 323.4 
L 482.056875 280.365625 
Q 482.056875 278.365625 480.056875 278.365625 
L 392.844375 278.365625 
Q 390.844375 278.365625 390.844375 280.365625 
L 390.844375 323.4 
Q 390.844375 325.4 392.844375 325.4 
z
" style="fill: #ffffff; opacity: 0.8; stroke: #cccccc; stroke-linejoin: miter"/>
    </g>
    <g id="line2d_33">
     <path d="M 394.844375 286.464062 
L 404.844375 286.464062 
L 414.844375 286.464062 
" style="fill: none; stroke: #2196f3; stroke-width: 2; stroke-linecap: square"/>
    </g>
    <g id="text_18">
     <!-- Chemistry -->
     <g transform="translate(422.844375 289.964062) scale(0.1 -0.1)">
      <defs>
       <path id="DejaVuSans-68" d="M 3513 2113 
L 3513 0 
L 2938 0 
L 2938 2094 
Q 2938 2591 2744 2837 
Q 2550 3084 2163 3084 
Q 1697 3084 1428 2787 
Q 1159 2491 1159 1978 
L 1159 0 
L 581 0 
L 581 4863 
L 1159 4863 
L 1159 2956 
Q 1366 3272 1645 3428 
Q 1925 3584 2291 3584 
Q 2894 3584 3203 3211 
Q 3513 2838 3513 2113 
z
" transform="scale(0.015625)"/>
       <path id="DejaVuSans-73" d="M 2834 3397 
L 2834 2853 
Q 2591 2978 2328 3040 
Q 2066 3103 1784 3103 
Q 1356 3103 1142 2972 
Q 928 2841 928 2578 
Q 928 2378 1081 2264 
Q 1234 2150 1697 2047 
L 1894 2003 
Q 2506 1872 2764 1633 
Q 3022 1394 3022 966 
Q 3022 478 2636 193 
Q 2250 -91 1575 -91 
Q 1294 -91 989 -36 
Q 684 19 347 128 
L 347 722 
Q 666 556 975 473 
Q 1284 391 1588 391 
Q 1994 391 2212 530 
Q 2431 669 2431 922 
Q 2431 1156 2273 1281 
Q 2116 1406 1581 1522 
L 1381 1569 
Q 847 1681 609 1914 
Q 372 2147 372 2553 
Q 372 3047 722 3315 
Q 1072 3584 1716 3584 
Q 2034 3584 2315 3537 
Q 2597 3491 2834 3397 
z
" transform="scale(0.015625)"/>
      </defs>
      <use xlink:href="#DejaVuSans-43"/>
      <use xlink:href="#DejaVuSans-68" transform="translate(69.824219 0)"/>
      <use xlink:href="#DejaVuSans-65" transform="translate(133.203125 0)"/>
      <use xlink:href="#DejaVuSans-6d" transform="translate(194.726562 0)"/>
      <use xlink:href="#DejaVuSans-69" transform="translate(292.138672 0)"/>
      <use xlink:href="#DejaVuSans-73" transform="translate(319.921875 0)"/>
      <use xlink:href="#DejaVuSans-74" transform="translate(372.021484 0)"/>
      <use xlink:href="#DejaVuSans-72" transform="translate(411.230469 0)"/>
      <use xlink:href="#DejaVuSans-79" transform="translate(452.34375 0)"/>
     </g>
    </g>
    <g id="line2d_34">
     <path d="M 394.844375 301.142187 
L 404.844375 301.142187 
L 414.844375 301.142187 
" style="fill: none; stroke: #4caf50; stroke-width: 2; stroke-linecap: square"/>
    </g>
    <g id="text_19">
     <!-- Geography -->
     <g transform="translate(422.844375 304.642187) scale(0.1 -0.1)">
      <defs>
       <path id="DejaVuSans-70" d="M 1159 525 
L 1159 -1331 
L 581 -1331 
L 581 3500 
L 1159 3500 
L 1159 2969 
Q 1341 3281 1617 3432 
Q 1894 3584 2278 3584 
Q 2916 3584 3314 3078 
Q 3713 2572 3713 1747 
Q 3713 922 3314 415 
Q 2916 -91 2278 -91 
Q 1894 -91 1617 61 
Q 1341 213 1159 525 
z
M 3116 1747 
Q 3116 2381 2855 2742 
Q 2594 3103 2138 3103 
Q 1681 3103 1420 2742 
Q 1159 2381 1159 1747 
Q 1159 1113 1420 752 
Q 1681 391 2138 391 
Q 2594 391 2855 752 
Q 3116 1113 3116 1747 
z
" transform="scale(0.015625)"/>
      </defs>
      <use xlink:href="#DejaVuSans-47"/>
      <use xlink:href="#DejaVuSans-65" transform="translate(77.490234 0)"/>
      <use xlink:href="#DejaVuSans-6f" transform="translate(139.013672 0)"/>
      <use xlink:href="#DejaVuSans-67" transform="translate(200.195312 0)"/>
      <use xlink:href="#DejaVuSans-72" transform="translate(263.671875 0)"/>
      <use xlink:href="#DejaVuSans-61" transform="translate(304.785156 0)"/>
      <use xlink:href="#DejaVuSans-70" transform="translate(366.064453 0)"/>
      <use xlink:href="#DejaVuSans-68" transform="translate(429.541016 0)"/>
      <use xlink:href="#DejaVuSans-79" transform="translate(492.919922 0)"/>
     </g>
    </g>
    <g id="line2d_35">
     <path d="M 394.844375 315.820312 
L 404.844375 315.820312 
L 414.844375 315.820312 
" style="fill: none; stroke: #ff9800; stroke-width: 2; stroke-linecap: square"/>
    </g>
    <g id="text_20">
     <!-- History -->
     <g transform="translate(422.844375 319.320312) scale(0.1 -0.1)">
      <defs>
       <path id="DejaVuSans-48" d="M 628 4666 
L 1259 4666 
L 1259 2753 
L 3553 2753 
L 3553 4666 
L 4184 4666 
L 4184 0 
L 3553 0 
L 3553 2222 
L 1259 2222 
L 1259 0 
L 628 0 
L 628 4666 
z
" transform="scale(0.015625)"/>
      </defs>
      <use xlink:href="#DejaVuSans-48"/>
      <use xlink:href="#DejaVuSans-69" transform="translate(75.195312 0)"/>
      <use xlink:href="#DejaVuSans-73" transform="translate(102.978516 0)"/>
      <use xlink:href="#DejaVuSans-74" transform="translate(155.078125 0)"/>
      <use xlink:href="#DejaVuSans-6f" transform="translate(194.287109 0)"/>
      <use xlink:href="#DejaVuSans-72" transform="translate(255.46875 0)"/>
      <use xlink:href="#DejaVuSans-79" transform="translate(296.582031 0)"/>
     </g>
    </g>
   </g>
  </g>
  <g id="axes_2">
   <g id="patch_8">
    <path d="M 543.776875 330.4 
L 985.116875 330.4 
L 985.116875 82.752 
L 543.776875 82.752 
z
" style="fill: #ffffff"/>
   </g>
   <g id="FillBetweenPolyCollection_4">
    <defs>
     <path id="me7ec03b13a" d="M 543.776875 -43.830999 
L 543.776875 -43.076817 
L 556.386589 -44.31291 
L 568.996304 -45.199076 
L 581.606018 -46.669118 
L 594.215732 -51.071025 
L 606.825446 -57.173505 
L 619.435161 -64.84424 
L 632.044875 -70.00773 
L 644.654589 -77.033205 
L 657.264304 -84.32676 
L 669.874018 -90.619545 
L 682.483732 -94.981741 
L 695.093446 -98.706955 
L 707.703161 -102.016458 
L 720.312875 -105.059515 
L 732.922589 -107.762381 
L 745.532304 -110.754036 
L 758.142018 -112.419904 
L 770.751732 -113.957088 
L 783.361446 -116.729682 
L 795.971161 -118.309506 
L 808.580875 -120.085907 
L 821.190589 -123.093919 
L 833.800304 -128.310795 
L 846.410018 -133.97647 
L 859.019732 -137.911951 
L 871.629446 -144.974436 
L 884.239161 -152.907666 
L 896.848875 -161.373832 
L 909.458589 -174.451372 
L 922.068304 -184.120143 
L 934.678018 -197.687953 
L 947.287732 -215.660107 
L 959.897446 -231.336748 
L 972.507161 -252.318775 
L 985.116875 -275.347113 
L 985.116875 -275.347113 
L 985.116875 -275.347113 
L 972.507161 -255.17083 
L 959.897446 -237.572085 
L 947.287732 -224.155767 
L 934.678018 -207.702629 
L 922.068304 -193.767304 
L 909.458589 -183.688897 
L 896.848875 -170.806926 
L 884.239161 -162.940383 
L 871.629446 -154.266493 
L 859.019732 -147.651622 
L 846.410018 -143.379792 
L 833.800304 -137.094085 
L 821.190589 -132.373632 
L 808.580875 -129.158103 
L 795.971161 -127.302795 
L 783.361446 -125.693337 
L 770.751732 -122.605848 
L 758.142018 -120.965582 
L 745.532304 -119.257838 
L 732.922589 -116.291688 
L 720.312875 -113.42263 
L 707.703161 -110.338996 
L 695.093446 -106.955426 
L 682.483732 -102.575515 
L 669.874018 -97.83037 
L 657.264304 -91.179645 
L 644.654589 -83.902077 
L 632.044875 -75.968124 
L 619.435161 -69.948617 
L 606.825446 -61.428483 
L 594.215732 -54.151919 
L 581.606018 -48.936404 
L 568.996304 -46.809553 
L 556.386589 -45.634647 
L 543.776875 -43.830999 
z
" style="stroke: #2196f3; stroke-opacity: 0.1"/>
    </defs>
    <g clip-path="url(#pd4cc5b67fb)">
     <use xlink:href="#me7ec03b13a" x="0" y="369.891875" style="fill: #2196f3; fill-opacity: 0.1; stroke: #2196f3; stroke-opacity: 0.1"/>
    </g>
   </g>
   <g id="FillBetweenPolyCollection_5">
    <defs>
     <path id="mb18071b542" d="M 543.776875 -43.734013 
L 543.776875 -43.358984 
L 556.386589 -44.507434 
L 568.996304 -45.582018 
L 581.606018 -46.971115 
L 594.215732 -50.980078 
L 606.825446 -57.574802 
L 619.435161 -63.944633 
L 632.044875 -68.831201 
L 644.654589 -75.471228 
L 657.264304 -82.25538 
L 669.874018 -88.881833 
L 682.483732 -93.954831 
L 695.093446 -97.748098 
L 707.703161 -100.484352 
L 720.312875 -102.985122 
L 732.922589 -104.78613 
L 745.532304 -107.044965 
L 758.142018 -108.935658 
L 770.751732 -111.433649 
L 783.361446 -113.688625 
L 795.971161 -115.250363 
L 808.580875 -117.151025 
L 821.190589 -121.31642 
L 833.800304 -126.164048 
L 846.410018 -131.544475 
L 859.019732 -138.777408 
L 871.629446 -144.244981 
L 884.239161 -150.557089 
L 896.848875 -158.71066 
L 909.458589 -168.581381 
L 922.068304 -181.306188 
L 934.678018 -206.078238 
L 947.287732 -221.491371 
L 959.897446 -235.272773 
L 972.507161 -250.378741 
L 985.116875 -275.347113 
L 985.116875 -275.347113 
L 985.116875 -275.347113 
L 972.507161 -255.230812 
L 959.897446 -240.806227 
L 947.287732 -225.43158 
L 934.678018 -211.575868 
L 922.068304 -189.037047 
L 909.458589 -176.295064 
L 896.848875 -163.856616 
L 884.239161 -155.506178 
L 871.629446 -149.238826 
L 859.019732 -143.715816 
L 846.410018 -135.988298 
L 833.800304 -130.738468 
L 821.190589 -125.869593 
L 808.580875 -121.554147 
L 795.971161 -119.803124 
L 783.361446 -118.275863 
L 770.751732 -115.973726 
L 758.142018 -113.367794 
L 745.532304 -111.665536 
L 732.922589 -108.902774 
L 720.312875 -106.720744 
L 707.703161 -103.892127 
L 695.093446 -100.67522 
L 682.483732 -96.721913 
L 669.874018 -91.951055 
L 657.264304 -85.184657 
L 644.654589 -78.452089 
L 632.044875 -71.369206 
L 619.435161 -66.143369 
L 606.825446 -58.957051 
L 594.215732 -52.162707 
L 581.606018 -47.654267 
L 568.996304 -46.164545 
L 556.386589 -45.068291 
L 543.776875 -43.734013 
z
" style="stroke: #4caf50; stroke-opacity: 0.1"/>
    </defs>
    <g clip-path="url(#pd4cc5b67fb)">
     <use xlink:href="#mb18071b542" x="0" y="369.891875" style="fill: #4caf50; fill-opacity: 0.1; stroke: #4caf50; stroke-opacity: 0.1"/>
    </g>
   </g>
   <g id="FillBetweenPolyCollection_6">
    <defs>
     <path id="m62e6d797b4" d="M 543.776875 -43.265064 
L 543.776875 -42.323796 
L 556.386589 -43.181032 
L 568.996304 -44.196643 
L 581.606018 -45.798342 
L 594.215732 -48.574468 
L 606.825446 -52.806581 
L 619.435161 -58.517462 
L 632.044875 -63.517278 
L 644.654589 -69.458171 
L 657.264304 -74.064694 
L 669.874018 -78.744837 
L 682.483732 -83.084646 
L 695.093446 -86.512008 
L 707.703161 -89.904376 
L 720.312875 -92.611584 
L 732.922589 -94.745908 
L 745.532304 -97.463133 
L 758.142018 -99.120623 
L 770.751732 -100.47491 
L 783.361446 -103.453085 
L 795.971161 -105.231246 
L 808.580875 -107.560941 
L 821.190589 -110.582971 
L 833.800304 -116.620776 
L 846.410018 -123.420432 
L 859.019732 -128.279616 
L 871.629446 -134.889995 
L 884.239161 -141.940876 
L 896.848875 -152.235917 
L 909.458589 -164.679117 
L 922.068304 -177.921421 
L 934.678018 -195.82739 
L 947.287732 -213.493441 
L 959.897446 -231.376039 
L 972.507161 -247.700142 
L 985.116875 -275.347113 
L 985.116875 -275.347113 
L 985.116875 -275.347113 
L 972.507161 -258.156762 
L 959.897446 -244.789566 
L 947.287732 -228.121843 
L 934.678018 -211.975079 
L 922.068304 -195.209216 
L 909.458589 -178.73843 
L 896.848875 -166.923863 
L 884.239161 -157.721044 
L 871.629446 -150.227083 
L 859.019732 -144.909281 
L 846.410018 -140.592162 
L 833.800304 -134.062031 
L 821.190589 -128.822758 
L 808.580875 -126.189317 
L 795.971161 -124.397432 
L 783.361446 -122.781687 
L 770.751732 -120.436141 
L 758.142018 -117.046998 
L 745.532304 -114.991472 
L 732.922589 -111.247498 
L 720.312875 -107.073155 
L 707.703161 -102.376216 
L 695.093446 -98.280229 
L 682.483732 -93.535783 
L 669.874018 -88.276561 
L 657.264304 -81.332983 
L 644.654589 -75.670443 
L 632.044875 -68.947636 
L 619.435161 -62.697044 
L 606.825446 -56.343991 
L 594.215732 -51.104224 
L 581.606018 -47.692735 
L 568.996304 -46.021171 
L 556.386589 -44.856543 
L 543.776875 -43.265064 
z
" style="stroke: #ff9800; stroke-opacity: 0.1"/>
    </defs>
    <g clip-path="url(#pd4cc5b67fb)">
     <use xlink:href="#m62e6d797b4" x="0" y="369.891875" style="fill: #ff9800; fill-opacity: 0.1; stroke: #ff9800; stroke-opacity: 0.1"/>
    </g>
   </g>
   <g id="matplotlib.axis_3">
    <g id="xtick_7">
     <g id="line2d_36">
      <path d="M 543.776875 330.4 
L 543.776875 82.752 
" clip-path="url(#pd4cc5b67fb)" style="fill: none; stroke: #b0b0b0; stroke-opacity: 0.3; stroke-width: 0.8; stroke-linecap: square"/>
     </g>
     <g id="line2d_37">
      <g>
       <use xlink:href="#m2f8ae6303b" x="543.776875" y="330.4" style="stroke: #000000; stroke-width: 0.8"/>
      </g>
     </g>
     <g id="text_21">
      <!-- 0 -->
      <g transform="translate(540.595625 344.998437) scale(0.1 -0.1)">
       <use xlink:href="#DejaVuSans-30"/>
      </g>
     </g>
    </g>
    <g id="xtick_8">
     <g id="line2d_38">
      <path d="M 606.825446 330.4 
L 606.825446 82.752 
" clip-path="url(#pd4cc5b67fb)" style="fill: none; stroke: #b0b0b0; stroke-opacity: 0.3; stroke-width: 0.8; stroke-linecap: square"/>
     </g>
     <g id="line2d_39">
      <g>
       <use xlink:href="#m2f8ae6303b" x="606.825446" y="330.4" style="stroke: #000000; stroke-width: 0.8"/>
      </g>
     </g>
     <g id="text_22">
      <!-- 5 -->
      <g transform="translate(603.644196 344.998437) scale(0.1 -0.1)">
       <use xlink:href="#DejaVuSans-35"/>
      </g>
     </g>
    </g>
    <g id="xtick_9">
     <g id="line2d_40">
      <path d="M 669.874018 330.4 
L 669.874018 82.752 
" clip-path="url(#pd4cc5b67fb)" style="fill: none; stroke: #b0b0b0; stroke-opacity: 0.3; stroke-width: 0.8; stroke-linecap: square"/>
     </g>
     <g id="line2d_41">
      <g>
       <use xlink:href="#m2f8ae6303b" x="669.874018" y="330.4" style="stroke: #000000; stroke-width: 0.8"/>
      </g>
     </g>
     <g id="text_23">
      <!-- 10 -->
      <g transform="translate(663.511518 344.998437) scale(0.1 -0.1)">
       <use xlink:href="#DejaVuSans-31"/>
       <use xlink:href="#DejaVuSans-30" transform="translate(63.623047 0)"/>
      </g>
     </g>
    </g>
    <g id="xtick_10">
     <g id="line2d_42">
      <path d="M 732.922589 330.4 
L 732.922589 82.752 
" clip-path="url(#pd4cc5b67fb)" style="fill: none; stroke: #b0b0b0; stroke-opacity: 0.3; stroke-width: 0.8; stroke-linecap: square"/>
     </g>
     <g id="line2d_43">
      <g>
       <use xlink:href="#m2f8ae6303b" x="732.922589" y="330.4" style="stroke: #000000; stroke-width: 0.8"/>
      </g>
     </g>
     <g id="text_24">
      <!-- 15 -->
      <g transform="translate(726.560089 344.998437) scale(0.1 -0.1)">
       <use xlink:href="#DejaVuSans-31"/>
       <use xlink:href="#DejaVuSans-35" transform="translate(63.623047 0)"/>
      </g>
     </g>
    </g>
    <g id="xtick_11">
     <g id="line2d_44">
      <path d="M 795.971161 330.4 
L 795.971161 82.752 
" clip-path="url(#pd4cc5b67fb)" style="fill: none; stroke: #b0b0b0; stroke-opacity: 0.3; stroke-width: 0.8; stroke-linecap: square"/>
     </g>
     <g id="line2d_45">
      <g>
       <use xlink:href="#m2f8ae6303b" x="795.971161" y="330.4" style="stroke: #000000; stroke-width: 0.8"/>
      </g>
     </g>
     <g id="text_25">
      <!-- 20 -->
      <g transform="translate(789.608661 344.998437) scale(0.1 -0.1)">
       <use xlink:href="#DejaVuSans-32"/>
       <use xlink:href="#DejaVuSans-30" transform="translate(63.623047 0)"/>
      </g>
     </g>
    </g>
    <g id="xtick_12">
     <g id="line2d_46">
      <path d="M 859.019732 330.4 
L 859.019732 82.752 
" clip-path="url(#pd4cc5b67fb)" style="fill: none; stroke: #b0b0b0; stroke-opacity: 0.3; stroke-width: 0.8; stroke-linecap: square"/>
     </g>
     <g id="line2d_47">
      <g>
       <use xlink:href="#m2f8ae6303b" x="859.019732" y="330.4" style="stroke: #000000; stroke-width: 0.8"/>
      </g>
     </g>
     <g id="text_26">
      <!-- 25 -->
      <g transform="translate(852.657232 344.998437) scale(0.1 -0.1)">
       <use xlink:href="#DejaVuSans-32"/>
       <use xlink:href="#DejaVuSans-35" transform="translate(63.623047 0)"/>
      </g>
     </g>
    </g>
    <g id="xtick_13">
     <g id="line2d_48">
      <path d="M 922.068304 330.4 
L 922.068304 82.752 
" clip-path="url(#pd4cc5b67fb)" style="fill: none; stroke: #b0b0b0; stroke-opacity: 0.3; stroke-width: 0.8; stroke-linecap: square"/>
     </g>
     <g id="line2d_49">
      <g>
       <use xlink:href="#m2f8ae6303b" x="922.068304" y="330.4" style="stroke: #000000; stroke-width: 0.8"/>
      </g>
     </g>
     <g id="text_27">
      <!-- 30 -->
      <g transform="translate(915.705804 344.998437) scale(0.1 -0.1)">
       <defs>
        <path id="DejaVuSans-33" d="M 2597 2516 
Q 3050 2419 3304 2112 
Q 3559 1806 3559 1356 
Q 3559 666 3084 287 
Q 2609 -91 1734 -91 
Q 1441 -91 1130 -33 
Q 819 25 488 141 
L 488 750 
Q 750 597 1062 519 
Q 1375 441 1716 441 
Q 2309 441 2620 675 
Q 2931 909 2931 1356 
Q 2931 1769 2642 2001 
Q 2353 2234 1838 2234 
L 1294 2234 
L 1294 2753 
L 1863 2753 
Q 2328 2753 2575 2939 
Q 2822 3125 2822 3475 
Q 2822 3834 2567 4026 
Q 2313 4219 1838 4219 
Q 1578 4219 1281 4162 
Q 984 4106 628 3988 
L 628 4550 
Q 988 4650 1302 4700 
Q 1616 4750 1894 4750 
Q 2613 4750 3031 4423 
Q 3450 4097 3450 3541 
Q 3450 3153 3228 2886 
Q 3006 2619 2597 2516 
z
" transform="scale(0.015625)"/>
       </defs>
       <use xlink:href="#DejaVuSans-33"/>
       <use xlink:href="#DejaVuSans-30" transform="translate(63.623047 0)"/>
      </g>
     </g>
    </g>
    <g id="xtick_14">
     <g id="line2d_50">
      <path d="M 985.116875 330.4 
L 985.116875 82.752 
" clip-path="url(#pd4cc5b67fb)" style="fill: none; stroke: #b0b0b0; stroke-opacity: 0.3; stroke-width: 0.8; stroke-linecap: square"/>
     </g>
     <g id="line2d_51">
      <g>
       <use xlink:href="#m2f8ae6303b" x="985.116875" y="330.4" style="stroke: #000000; stroke-width: 0.8"/>
      </g>
     </g>
     <g id="text_28">
      <!-- 35 -->
      <g transform="translate(978.754375 344.998437) scale(0.1 -0.1)">
       <use xlink:href="#DejaVuSans-33"/>
       <use xlink:href="#DejaVuSans-35" transform="translate(63.623047 0)"/>
      </g>
     </g>
    </g>
    <g id="text_29">
     <!-- Layer -->
     <g transform="translate(747.717187 360.19625) scale(0.12 -0.12)">
      <use xlink:href="#DejaVuSans-4c"/>
      <use xlink:href="#DejaVuSans-61" transform="translate(55.712891 0)"/>
      <use xlink:href="#DejaVuSans-79" transform="translate(116.992188 0)"/>
      <use xlink:href="#DejaVuSans-65" transform="translate(176.171875 0)"/>
      <use xlink:href="#DejaVuSans-72" transform="translate(237.695312 0)"/>
     </g>
    </g>
   </g>
   <g id="matplotlib.axis_4">
    <g id="ytick_7">
     <g id="line2d_52">
      <path d="M 543.776875 330.4 
L 985.116875 330.4 
" clip-path="url(#pd4cc5b67fb)" style="fill: none; stroke: #b0b0b0; stroke-opacity: 0.3; stroke-width: 0.8; stroke-linecap: square"/>
     </g>
     <g id="line2d_53">
      <g>
       <use xlink:href="#m17674e4fce" x="543.776875" y="330.4" style="stroke: #000000; stroke-width: 0.8"/>
      </g>
     </g>
     <g id="text_30">
      <!-- 0.0 -->
      <g transform="translate(520.87375 334.199219) scale(0.1 -0.1)">
       <use xlink:href="#DejaVuSans-30"/>
       <use xlink:href="#DejaVuSans-2e" transform="translate(63.623047 0)"/>
       <use xlink:href="#DejaVuSans-30" transform="translate(95.410156 0)"/>
      </g>
     </g>
    </g>
    <g id="ytick_8">
     <g id="line2d_54">
      <path d="M 543.776875 283.228952 
L 985.116875 283.228952 
" clip-path="url(#pd4cc5b67fb)" style="fill: none; stroke: #b0b0b0; stroke-opacity: 0.3; stroke-width: 0.8; stroke-linecap: square"/>
     </g>
     <g id="line2d_55">
      <g>
       <use xlink:href="#m17674e4fce" x="543.776875" y="283.228952" style="stroke: #000000; stroke-width: 0.8"/>
      </g>
     </g>
     <g id="text_31">
      <!-- 0.2 -->
      <g transform="translate(520.87375 287.028171) scale(0.1 -0.1)">
       <use xlink:href="#DejaVuSans-30"/>
       <use xlink:href="#DejaVuSans-2e" transform="translate(63.623047 0)"/>
       <use xlink:href="#DejaVuSans-32" transform="translate(95.410156 0)"/>
      </g>
     </g>
    </g>
    <g id="ytick_9">
     <g id="line2d_56">
      <path d="M 543.776875 236.057905 
L 985.116875 236.057905 
" clip-path="url(#pd4cc5b67fb)" style="fill: none; stroke: #b0b0b0; stroke-opacity: 0.3; stroke-width: 0.8; stroke-linecap: square"/>
     </g>
     <g id="line2d_57">
      <g>
       <use xlink:href="#m17674e4fce" x="543.776875" y="236.057905" style="stroke: #000000; stroke-width: 0.8"/>
      </g>
     </g>
     <g id="text_32">
      <!-- 0.4 -->
      <g transform="translate(520.87375 239.857124) scale(0.1 -0.1)">
       <use xlink:href="#DejaVuSans-30"/>
       <use xlink:href="#DejaVuSans-2e" transform="translate(63.623047 0)"/>
       <use xlink:href="#DejaVuSans-34" transform="translate(95.410156 0)"/>
      </g>
     </g>
    </g>
    <g id="ytick_10">
     <g id="line2d_58">
      <path d="M 543.776875 188.886857 
L 985.116875 188.886857 
" clip-path="url(#pd4cc5b67fb)" style="fill: none; stroke: #b0b0b0; stroke-opacity: 0.3; stroke-width: 0.8; stroke-linecap: square"/>
     </g>
     <g id="line2d_59">
      <g>
       <use xlink:href="#m17674e4fce" x="543.776875" y="188.886857" style="stroke: #000000; stroke-width: 0.8"/>
      </g>
     </g>
     <g id="text_33">
      <!-- 0.6 -->
      <g transform="translate(520.87375 192.686076) scale(0.1 -0.1)">
       <use xlink:href="#DejaVuSans-30"/>
       <use xlink:href="#DejaVuSans-2e" transform="translate(63.623047 0)"/>
       <use xlink:href="#DejaVuSans-36" transform="translate(95.410156 0)"/>
      </g>
     </g>
    </g>
    <g id="ytick_11">
     <g id="line2d_60">
      <path d="M 543.776875 141.71581 
L 985.116875 141.71581 
" clip-path="url(#pd4cc5b67fb)" style="fill: none; stroke: #b0b0b0; stroke-opacity: 0.3; stroke-width: 0.8; stroke-linecap: square"/>
     </g>
     <g id="line2d_61">
      <g>
       <use xlink:href="#m17674e4fce" x="543.776875" y="141.71581" style="stroke: #000000; stroke-width: 0.8"/>
      </g>
     </g>
     <g id="text_34">
      <!-- 0.8 -->
      <g transform="translate(520.87375 145.515028) scale(0.1 -0.1)">
       <use xlink:href="#DejaVuSans-30"/>
       <use xlink:href="#DejaVuSans-2e" transform="translate(63.623047 0)"/>
       <use xlink:href="#DejaVuSans-38" transform="translate(95.410156 0)"/>
      </g>
     </g>
    </g>
    <g id="ytick_12">
     <g id="line2d_62">
      <path d="M 543.776875 94.544762 
L 985.116875 94.544762 
" clip-path="url(#pd4cc5b67fb)" style="fill: none; stroke: #b0b0b0; stroke-opacity: 0.3; stroke-width: 0.8; stroke-linecap: square"/>
     </g>
     <g id="line2d_63">
      <g>
       <use xlink:href="#m17674e4fce" x="543.776875" y="94.544762" style="stroke: #000000; stroke-width: 0.8"/>
      </g>
     </g>
     <g id="text_35">
      <!-- 1.0 -->
      <g transform="translate(520.87375 98.343981) scale(0.1 -0.1)">
       <use xlink:href="#DejaVuSans-31"/>
       <use xlink:href="#DejaVuSans-2e" transform="translate(63.623047 0)"/>
       <use xlink:href="#DejaVuSans-30" transform="translate(95.410156 0)"/>
      </g>
     </g>
    </g>
    <g id="text_36">
     <!-- Cumulative Energy Fraction -->
     <g transform="translate(514.378125 289.5935) rotate(-90) scale(0.12 -0.12)">
      <use xlink:href="#DejaVuSans-43"/>
      <use xlink:href="#DejaVuSans-75" transform="translate(69.824219 0)"/>
      <use xlink:href="#DejaVuSans-6d" transform="translate(133.203125 0)"/>
      <use xlink:href="#DejaVuSans-75" transform="translate(230.615234 0)"/>
      <use xlink:href="#DejaVuSans-6c" transform="translate(293.994141 0)"/>
      <use xlink:href="#DejaVuSans-61" transform="translate(321.777344 0)"/>
      <use xlink:href="#DejaVuSans-74" transform="translate(383.056641 0)"/>
      <use xlink:href="#DejaVuSans-69" transform="translate(422.265625 0)"/>
      <use xlink:href="#DejaVuSans-76" transform="translate(450.048828 0)"/>
      <use xlink:href="#DejaVuSans-65" transform="translate(509.228516 0)"/>
      <use xlink:href="#DejaVuSans-20" transform="translate(570.751953 0)"/>
      <use xlink:href="#DejaVuSans-45" transform="translate(602.539062 0)"/>
      <use xlink:href="#DejaVuSans-6e" transform="translate(665.722656 0)"/>
      <use xlink:href="#DejaVuSans-65" transform="translate(729.101562 0)"/>
      <use xlink:href="#DejaVuSans-72" transform="translate(790.625 0)"/>
      <use xlink:href="#DejaVuSans-67" transform="translate(829.988281 0)"/>
      <use xlink:href="#DejaVuSans-79" transform="translate(893.464844 0)"/>
      <use xlink:href="#DejaVuSans-20" transform="translate(952.644531 0)"/>
      <use xlink:href="#DejaVuSans-46" transform="translate(984.431641 0)"/>
      <use xlink:href="#DejaVuSans-72" transform="translate(1034.701172 0)"/>
      <use xlink:href="#DejaVuSans-61" transform="translate(1075.814453 0)"/>
      <use xlink:href="#DejaVuSans-63" transform="translate(1137.09375 0)"/>
      <use xlink:href="#DejaVuSans-74" transform="translate(1192.074219 0)"/>
      <use xlink:href="#DejaVuSans-69" transform="translate(1231.283203 0)"/>
      <use xlink:href="#DejaVuSans-6f" transform="translate(1259.066406 0)"/>
      <use xlink:href="#DejaVuSans-6e" transform="translate(1320.248047 0)"/>
     </g>
    </g>
   </g>
   <g id="line2d_64">
    <path d="M 543.776875 326.437967 
L 556.386589 324.918097 
L 568.996304 323.88756 
L 581.606018 322.089114 
L 594.215732 317.280403 
L 606.825446 310.590881 
L 619.435161 302.495446 
L 632.044875 296.903948 
L 644.654589 289.424234 
L 657.264304 282.138672 
L 669.874018 275.666917 
L 682.483732 271.113247 
L 695.093446 267.060685 
L 707.703161 263.714148 
L 720.312875 260.650803 
L 732.922589 257.86484 
L 745.532304 254.885938 
L 758.142018 253.199132 
L 770.751732 251.610407 
L 783.361446 248.680366 
L 795.971161 247.085725 
L 808.580875 245.26987 
L 821.190589 242.1581 
L 833.800304 237.189435 
L 846.410018 231.213744 
L 859.019732 227.110088 
L 871.629446 220.27141 
L 884.239161 211.96785 
L 896.848875 203.801496 
L 909.458589 190.821741 
L 922.068304 180.948151 
L 934.678018 167.196584 
L 947.287732 149.983938 
L 959.897446 135.437459 
L 972.507161 116.147072 
L 985.116875 94.544762 
" clip-path="url(#pd4cc5b67fb)" style="fill: none; stroke: #2196f3; stroke-width: 2; stroke-linecap: square"/>
   </g>
   <g id="line2d_65">
    <path d="M 890.544018 330.4 
L 890.544018 82.752 
" clip-path="url(#pd4cc5b67fb)" style="fill: none; stroke-dasharray: 3.7,1.6; stroke-dashoffset: 0; stroke: #2196f3; stroke-opacity: 0.5"/>
   </g>
   <g id="line2d_66">
    <path d="M 543.776875 326.345376 
L 556.386589 325.104013 
L 568.996304 324.018594 
L 581.606018 322.579184 
L 594.215732 318.320482 
L 606.825446 311.625949 
L 619.435161 304.847874 
L 632.044875 299.791672 
L 644.654589 292.930216 
L 657.264304 286.171857 
L 669.874018 279.475431 
L 682.483732 274.553503 
L 695.093446 270.680216 
L 707.703161 267.703635 
L 720.312875 265.038942 
L 732.922589 263.047423 
L 745.532304 260.536624 
L 758.142018 258.740149 
L 770.751732 256.188187 
L 783.361446 253.909631 
L 795.971161 252.365131 
L 808.580875 250.539289 
L 821.190589 246.298868 
L 833.800304 241.440617 
L 846.410018 236.125488 
L 859.019732 228.645263 
L 871.629446 223.149971 
L 884.239161 216.860242 
L 896.848875 208.608237 
L 909.458589 197.453652 
L 922.068304 184.720257 
L 934.678018 161.064822 
L 947.287732 146.430399 
L 959.897446 131.852375 
L 972.507161 117.087098 
L 985.116875 94.544762 
" clip-path="url(#pd4cc5b67fb)" style="fill: none; stroke: #4caf50; stroke-width: 2; stroke-linecap: square"/>
   </g>
   <g id="line2d_67">
    <path d="M 895.587904 330.4 
L 895.587904 82.752 
" clip-path="url(#pd4cc5b67fb)" style="fill: none; stroke-dasharray: 3.7,1.6; stroke-dashoffset: 0; stroke: #4caf50; stroke-opacity: 0.5"/>
   </g>
   <g id="line2d_68">
    <path d="M 543.776875 327.097445 
L 556.386589 325.873088 
L 568.996304 324.782968 
L 581.606018 323.146337 
L 594.215732 320.052529 
L 606.825446 315.316589 
L 619.435161 309.284622 
L 632.044875 303.659418 
L 644.654589 297.327568 
L 657.264304 292.193036 
L 669.874018 286.381176 
L 682.483732 281.581661 
L 695.093446 277.495756 
L 707.703161 273.751579 
L 720.312875 270.049505 
L 732.922589 266.895172 
L 745.532304 263.664572 
L 758.142018 261.808065 
L 770.751732 259.436349 
L 783.361446 256.774489 
L 795.971161 255.077536 
L 808.580875 253.016746 
L 821.190589 250.18901 
L 833.800304 244.550472 
L 846.410018 237.885578 
L 859.019732 233.297427 
L 871.629446 227.333336 
L 884.239161 220.060915 
L 896.848875 210.311985 
L 909.458589 198.183101 
L 922.068304 183.326556 
L 934.678018 165.99064 
L 947.287732 149.084233 
L 959.897446 131.809072 
L 972.507161 116.963423 
L 985.116875 94.544762 
" clip-path="url(#pd4cc5b67fb)" style="fill: none; stroke: #ff9800; stroke-width: 2; stroke-linecap: square"/>
   </g>
   <g id="line2d_69">
    <path d="M 898.109846 330.4 
L 898.109846 82.752 
" clip-path="url(#pd4cc5b67fb)" style="fill: none; stroke-dasharray: 3.7,1.6; stroke-dashoffset: 0; stroke: #ff9800; stroke-opacity: 0.5"/>
   </g>
   <g id="line2d_70">
    <path d="M 543.776875 212.472381 
L 985.116875 212.472381 
" clip-path="url(#pd4cc5b67fb)" style="fill: none; stroke-dasharray: 1,1.65; stroke-dashoffset: 0; stroke: #808080; stroke-opacity: 0.5"/>
   </g>
   <g id="line2d_71">
    <path d="M 543.776875 118.130286 
L 985.116875 118.130286 
" clip-path="url(#pd4cc5b67fb)" style="fill: none; stroke-dasharray: 1,1.65; stroke-dashoffset: 0; stroke: #808080; stroke-opacity: 0.5"/>
   </g>
   <g id="patch_9">
    <path d="M 543.776875 330.4 
L 543.776875 82.752 
" style="fill: none; stroke: #000000; stroke-width: 0.8; stroke-linejoin: miter; stroke-linecap: square"/>
   </g>
   <g id="patch_10">
    <path d="M 985.116875 330.4 
L 985.116875 82.752 
" style="fill: none; stroke: #000000; stroke-width: 0.8; stroke-linejoin: miter; stroke-linecap: square"/>
   </g>
   <g id="patch_11">
    <path d="M 543.776875 330.4 
L 985.116875 330.4 
" style="fill: none; stroke: #000000; stroke-width: 0.8; stroke-linejoin: miter; stroke-linecap: square"/>
   </g>
   <g id="patch_12">
    <path d="M 543.776875 82.752 
L 985.116875 82.752 
" style="fill: none; stroke: #000000; stroke-width: 0.8; stroke-linejoin: miter; stroke-linecap: square"/>
   </g>
   <g id="text_37">
    <!-- 50% -->
    <g style="fill: #808080" transform="translate(764.446875 207.755276) scale(0.08 -0.08)">
     <use xlink:href="#DejaVuSans-35"/>
     <use xlink:href="#DejaVuSans-30" transform="translate(63.623047 0)"/>
     <use xlink:href="#DejaVuSans-25" transform="translate(127.246094 0)"/>
    </g>
   </g>
   <g id="text_38">
    <!-- 90% -->
    <g style="fill: #808080" transform="translate(764.446875 113.413181) scale(0.08 -0.08)">
     <use xlink:href="#DejaVuSans-39"/>
     <use xlink:href="#DejaVuSans-30" transform="translate(63.623047 0)"/>
     <use xlink:href="#DejaVuSans-25" transform="translate(127.246094 0)"/>
    </g>
   </g>
   <g id="text_39">
    <!-- QWEN3-4B -->
    <g transform="translate(728.857344 76.752) scale(0.13 -0.13)">
     <defs>
      <path id="DejaVuSans-51" d="M 2522 4238 
Q 1834 4238 1429 3725 
Q 1025 3213 1025 2328 
Q 1025 1447 1429 934 
Q 1834 422 2522 422 
Q 3209 422 3611 934 
Q 4013 1447 4013 2328 
Q 4013 3213 3611 3725 
Q 3209 4238 2522 4238 
z
M 3406 84 
L 4238 -825 
L 3475 -825 
L 2784 -78 
Q 2681 -84 2626 -87 
Q 2572 -91 2522 -91 
Q 1538 -91 948 567 
Q 359 1225 359 2328 
Q 359 3434 948 4092 
Q 1538 4750 2522 4750 
Q 3503 4750 4090 4092 
Q 4678 3434 4678 2328 
Q 4678 1516 4351 937 
Q 4025 359 3406 84 
z
" transform="scale(0.015625)"/>
      <path id="DejaVuSans-57" d="M 213 4666 
L 850 4666 
L 1831 722 
L 2809 4666 
L 3519 4666 
L 4500 722 
L 5478 4666 
L 6119 4666 
L 4947 0 
L 4153 0 
L 3169 4050 
L 2175 0 
L 1381 0 
L 213 4666 
z
" transform="scale(0.015625)"/>
      <path id="DejaVuSans-4e" d="M 628 4666 
L 1478 4666 
L 3547 763 
L 3547 4666 
L 4159 4666 
L 4159 0 
L 3309 0 
L 1241 3903 
L 1241 0 
L 628 0 
L 628 4666 
z
" transform="scale(0.015625)"/>
     </defs>
     <use xlink:href="#DejaVuSans-51"/>
     <use xlink:href="#DejaVuSans-57" transform="translate(78.710938 0)"/>
     <use xlink:href="#DejaVuSans-45" transform="translate(177.587891 0)"/>
     <use xlink:href="#DejaVuSans-4e" transform="translate(240.771484 0)"/>
     <use xlink:href="#DejaVuSans-33" transform="translate(315.576172 0)"/>
     <use xlink:href="#DejaVuSans-2d" transform="translate(379.199219 0)"/>
     <use xlink:href="#DejaVuSans-34" transform="translate(415.283203 0)"/>
     <use xlink:href="#DejaVuSans-42" transform="translate(478.90625 0)"/>
    </g>
   </g>
   <g id="legend_2">
    <g id="patch_13">
     <path d="M 890.904375 325.4 
L 978.116875 325.4 
Q 980.116875 325.4 980.116875 323.4 
L 980.116875 280.365625 
Q 980.116875 278.365625 978.116875 278.365625 
L 890.904375 278.365625 
Q 888.904375 278.365625 888.904375 280.365625 
L 888.904375 323.4 
Q 888.904375 325.4 890.904375 325.4 
z
" style="fill: #ffffff; opacity: 0.8; stroke: #cccccc; stroke-linejoin: miter"/>
    </g>
    <g id="line2d_72">
     <path d="M 892.904375 286.464062 
L 902.904375 286.464062 
L 912.904375 286.464062 
" style="fill: none; stroke: #2196f3; stroke-width: 2; stroke-linecap: square"/>
    </g>
    <g id="text_40">
     <!-- Chemistry -->
     <g transform="translate(920.904375 289.964062) scale(0.1 -0.1)">
      <use xlink:href="#DejaVuSans-43"/>
      <use xlink:href="#DejaVuSans-68" transform="translate(69.824219 0)"/>
      <use xlink:href="#DejaVuSans-65" transform="translate(133.203125 0)"/>
      <use xlink:href="#DejaVuSans-6d" transform="translate(194.726562 0)"/>
      <use xlink:href="#DejaVuSans-69" transform="translate(292.138672 0)"/>
      <use xlink:href="#DejaVuSans-73" transform="translate(319.921875 0)"/>
      <use xlink:href="#DejaVuSans-74" transform="translate(372.021484 0)"/>
      <use xlink:href="#DejaVuSans-72" transform="translate(411.230469 0)"/>
      <use xlink:href="#DejaVuSans-79" transform="translate(452.34375 0)"/>
     </g>
    </g>
    <g id="line2d_73">
     <path d="M 892.904375 301.142187 
L 902.904375 301.142187 
L 912.904375 301.142187 
" style="fill: none; stroke: #4caf50; stroke-width: 2; stroke-linecap: square"/>
    </g>
    <g id="text_41">
     <!-- Geography -->
     <g transform="translate(920.904375 304.642187) scale(0.1 -0.1)">
      <use xlink:href="#DejaVuSans-47"/>
      <use xlink:href="#DejaVuSans-65" transform="translate(77.490234 0)"/>
      <use xlink:href="#DejaVuSans-6f" transform="translate(139.013672 0)"/>
      <use xlink:href="#DejaVuSans-67" transform="translate(200.195312 0)"/>
      <use xlink:href="#DejaVuSans-72" transform="translate(263.671875 0)"/>
      <use xlink:href="#DejaVuSans-61" transform="translate(304.785156 0)"/>
      <use xlink:href="#DejaVuSans-70" transform="translate(366.064453 0)"/>
      <use xlink:href="#DejaVuSans-68" transform="translate(429.541016 0)"/>
      <use xlink:href="#DejaVuSans-79" transform="translate(492.919922 0)"/>
     </g>
    </g>
    <g id="line2d_74">
     <path d="M 892.904375 315.820312 
L 902.904375 315.820312 
L 912.904375 315.820312 
" style="fill: none; stroke: #ff9800; stroke-width: 2; stroke-linecap: square"/>
    </g>
    <g id="text_42">
     <!-- History -->
     <g transform="translate(920.904375 319.320312) scale(0.1 -0.1)">
      <use xlink:href="#DejaVuSans-48"/>
      <use xlink:href="#DejaVuSans-69" transform="translate(75.195312 0)"/>
      <use xlink:href="#DejaVuSans-73" transform="translate(102.978516 0)"/>
      <use xlink:href="#DejaVuSans-74" transform="translate(155.078125 0)"/>
      <use xlink:href="#DejaVuSans-6f" transform="translate(194.287109 0)"/>
      <use xlink:href="#DejaVuSans-72" transform="translate(255.46875 0)"/>
      <use xlink:href="#DejaVuSans-79" transform="translate(296.582031 0)"/>
     </g>
    </g>
   </g>
  </g>
  <g id="text_43">
   <!-- Cumulative Energy Accumulation Through Layers -->
   <g transform="translate(326.103594 17.837812) scale(0.14 -0.14)">
    <defs>
     <path id="DejaVuSans-54" d="M -19 4666 
L 3928 4666 
L 3928 4134 
L 2272 4134 
L 2272 0 
L 1638 0 
L 1638 4134 
L -19 4134 
L -19 4666 
z
" transform="scale(0.015625)"/>
    </defs>
    <use xlink:href="#DejaVuSans-43"/>
    <use xlink:href="#DejaVuSans-75" transform="translate(69.824219 0)"/>
    <use xlink:href="#DejaVuSans-6d" transform="translate(133.203125 0)"/>
    <use xlink:href="#DejaVuSans-75" transform="translate(230.615234 0)"/>
    <use xlink:href="#DejaVuSans-6c" transform="translate(293.994141 0)"/>
    <use xlink:href="#DejaVuSans-61" transform="translate(321.777344 0)"/>
    <use xlink:href="#DejaVuSans-74" transform="translate(383.056641 0)"/>
    <use xlink:href="#DejaVuSans-69" transform="translate(422.265625 0)"/>
    <use xlink:href="#DejaVuSans-76" transform="translate(450.048828 0)"/>
    <use xlink:href="#DejaVuSans-65" transform="translate(509.228516 0)"/>
    <use xlink:href="#DejaVuSans-20" transform="translate(570.751953 0)"/>
    <use xlink:href="#DejaVuSans-45" transform="translate(602.539062 0)"/>
    <use xlink:href="#DejaVuSans-6e" transform="translate(665.722656 0)"/>
    <use xlink:href="#DejaVuSans-65" transform="translate(729.101562 0)"/>
    <use xlink:href="#DejaVuSans-72" transform="translate(790.625 0)"/>
    <use xlink:href="#DejaVuSans-67" transform="translate(829.988281 0)"/>
    <use xlink:href="#DejaVuSans-79" transform="translate(893.464844 0)"/>
    <use xlink:href="#DejaVuSans-20" transform="translate(952.644531 0)"/>
    <use xlink:href="#DejaVuSans-41" transform="translate(984.431641 0)"/>
    <use xlink:href="#DejaVuSans-63" transform="translate(1051.089844 0)"/>
    <use xlink:href="#DejaVuSans-63" transform="translate(1106.070312 0)"/>
    <use xlink:href="#DejaVuSans-75" transform="translate(1161.050781 0)"/>
    <use xlink:href="#DejaVuSans-6d" transform="translate(1224.429688 0)"/>
    <use xlink:href="#DejaVuSans-75" transform="translate(1321.841797 0)"/>
    <use xlink:href="#DejaVuSans-6c" transform="translate(1385.220703 0)"/>
    <use xlink:href="#DejaVuSans-61" transform="translate(1413.003906 0)"/>
    <use xlink:href="#DejaVuSans-74" transform="translate(1474.283203 0)"/>
    <use xlink:href="#DejaVuSans-69" transform="translate(1513.492188 0)"/>
    <use xlink:href="#DejaVuSans-6f" transform="translate(1541.275391 0)"/>
    <use xlink:href="#DejaVuSans-6e" transform="translate(1602.457031 0)"/>
    <use xlink:href="#DejaVuSans-20" transform="translate(1665.835938 0)"/>
    <use xlink:href="#DejaVuSans-54" transform="translate(1697.623047 0)"/>
    <use xlink:href="#DejaVuSans-68" transform="translate(1758.707031 0)"/>
    <use xlink:href="#DejaVuSans-72" transform="translate(1822.085938 0)"/>
    <use xlink:href="#DejaVuSans-6f" transform="translate(1860.949219 0)"/>
    <use xlink:href="#DejaVuSans-75" transform="translate(1922.130859 0)"/>
    <use xlink:href="#DejaVuSans-67" transform="translate(1985.509766 0)"/>
    <use xlink:href="#DejaVuSans-68" transform="translate(2048.986328 0)"/>
    <use xlink:href="#DejaVuSans-20" transform="translate(2112.365234 0)"/>
    <use xlink:href="#DejaVuSans-4c" transform="translate(2144.152344 0)"/>
    <use xlink:href="#DejaVuSans-61" transform="translate(2199.865234 0)"/>
    <use xlink:href="#DejaVuSans-79" transform="translate(2261.144531 0)"/>
    <use xlink:href="#DejaVuSans-65" transform="translate(2320.324219 0)"/>
    <use xlink:href="#DejaVuSans-72" transform="translate(2381.847656 0)"/>
    <use xlink:href="#DejaVuSans-73" transform="translate(2422.960938 0)"/>
   </g>
   <!-- GEMMA reaches 50% by L11; QWEN by L28 — different accumulation regimes -->
   <g transform="translate(225.475312 33.51475) scale(0.14 -0.14)">
    <defs>
     <path id="DejaVuSans-62" d="M 3116 1747 
Q 3116 2381 2855 2742 
Q 2594 3103 2138 3103 
Q 1681 3103 1420 2742 
Q 1159 2381 1159 1747 
Q 1159 1113 1420 752 
Q 1681 391 2138 391 
Q 2594 391 2855 752 
Q 3116 1113 3116 1747 
z
M 1159 2969 
Q 1341 3281 1617 3432 
Q 1894 3584 2278 3584 
Q 2916 3584 3314 3078 
Q 3713 2572 3713 1747 
Q 3713 922 3314 415 
Q 2916 -91 2278 -91 
Q 1894 -91 1617 61 
Q 1341 213 1159 525 
L 1159 0 
L 581 0 
L 581 4863 
L 1159 4863 
L 1159 2969 
z
" transform="scale(0.015625)"/>
     <path id="DejaVuSans-3b" d="M 750 3309 
L 1409 3309 
L 1409 2516 
L 750 2516 
L 750 3309 
z
M 750 794 
L 1409 794 
L 1409 256 
L 897 -744 
L 494 -744 
L 750 256 
L 750 794 
z
" transform="scale(0.015625)"/>
     <path id="DejaVuSans-2014" d="M 313 1978 
L 6088 1978 
L 6088 1528 
L 313 1528 
L 313 1978 
z
" transform="scale(0.015625)"/>
     <path id="DejaVuSans-64" d="M 2906 2969 
L 2906 4863 
L 3481 4863 
L 3481 0 
L 2906 0 
L 2906 525 
Q 2725 213 2448 61 
Q 2172 -91 1784 -91 
Q 1150 -91 751 415 
Q 353 922 353 1747 
Q 353 2572 751 3078 
Q 1150 3584 1784 3584 
Q 2172 3584 2448 3432 
Q 2725 3281 2906 2969 
z
M 947 1747 
Q 947 1113 1208 752 
Q 1469 391 1925 391 
Q 2381 391 2643 752 
Q 2906 1113 2906 1747 
Q 2906 2381 2643 2742 
Q 2381 3103 1925 3103 
Q 1469 3103 1208 2742 
Q 947 2381 947 1747 
z
" transform="scale(0.015625)"/>
     <path id="DejaVuSans-66" d="M 2375 4863 
L 2375 4384 
L 1825 4384 
Q 1516 4384 1395 4259 
Q 1275 4134 1275 3809 
L 1275 3500 
L 2222 3500 
L 2222 3053 
L 1275 3053 
L 1275 0 
L 697 0 
L 697 3053 
L 147 3053 
L 147 3500 
L 697 3500 
L 697 3744 
Q 697 4328 969 4595 
Q 1241 4863 1831 4863 
L 2375 4863 
z
" transform="scale(0.015625)"/>
    </defs>
    <use xlink:href="#DejaVuSans-47"/>
    <use xlink:href="#DejaVuSans-45" transform="translate(77.490234 0)"/>
    <use xlink:href="#DejaVuSans-4d" transform="translate(140.673828 0)"/>
    <use xlink:href="#DejaVuSans-4d" transform="translate(226.953125 0)"/>
    <use xlink:href="#DejaVuSans-41" transform="translate(313.232422 0)"/>
    <use xlink:href="#DejaVuSans-20" transform="translate(381.640625 0)"/>
    <use xlink:href="#DejaVuSans-72" transform="translate(413.427734 0)"/>
    <use xlink:href="#DejaVuSans-65" transform="translate(452.291016 0)"/>
    <use xlink:href="#DejaVuSans-61" transform="translate(513.814453 0)"/>
    <use xlink:href="#DejaVuSans-63" transform="translate(575.09375 0)"/>
    <use xlink:href="#DejaVuSans-68" transform="translate(630.074219 0)"/>
    <use xlink:href="#DejaVuSans-65" transform="translate(693.453125 0)"/>
    <use xlink:href="#DejaVuSans-73" transform="translate(754.976562 0)"/>
    <use xlink:href="#DejaVuSans-20" transform="translate(807.076172 0)"/>
    <use xlink:href="#DejaVuSans-35" transform="translate(838.863281 0)"/>
    <use xlink:href="#DejaVuSans-30" transform="translate(902.486328 0)"/>
    <use xlink:href="#DejaVuSans-25" transform="translate(966.109375 0)"/>
    <use xlink:href="#DejaVuSans-20" transform="translate(1061.128906 0)"/>
    <use xlink:href="#DejaVuSans-62" transform="translate(1092.916016 0)"/>
    <use xlink:href="#DejaVuSans-79" transform="translate(1156.392578 0)"/>
    <use xlink:href="#DejaVuSans-20" transform="translate(1215.572266 0)"/>
    <use xlink:href="#DejaVuSans-4c" transform="translate(1247.359375 0)"/>
    <use xlink:href="#DejaVuSans-31" transform="translate(1303.072266 0)"/>
    <use xlink:href="#DejaVuSans-31" transform="translate(1366.695312 0)"/>
    <use xlink:href="#DejaVuSans-3b" transform="translate(1430.318359 0)"/>
    <use xlink:href="#DejaVuSans-20" transform="translate(1464.009766 0)"/>
    <use xlink:href="#DejaVuSans-51" transform="translate(1495.796875 0)"/>
    <use xlink:href="#DejaVuSans-57" transform="translate(1574.507812 0)"/>
    <use xlink:href="#DejaVuSans-45" transform="translate(1673.384766 0)"/>
    <use xlink:href="#DejaVuSans-4e" transform="translate(1736.568359 0)"/>
    <use xlink:href="#DejaVuSans-20" transform="translate(1811.373047 0)"/>
    <use xlink:href="#DejaVuSans-62" transform="translate(1843.160156 0)"/>
    <use xlink:href="#DejaVuSans-79" transform="translate(1906.636719 0)"/>
    <use xlink:href="#DejaVuSans-20" transform="translate(1965.816406 0)"/>
    <use xlink:href="#DejaVuSans-4c" transform="translate(1997.603516 0)"/>
    <use xlink:href="#DejaVuSans-32" transform="translate(2053.316406 0)"/>
    <use xlink:href="#DejaVuSans-38" transform="translate(2116.939453 0)"/>
    <use xlink:href="#DejaVuSans-20" transform="translate(2180.5625 0)"/>
    <use xlink:href="#DejaVuSans-2014" transform="translate(2212.349609 0)"/>
    <use xlink:href="#DejaVuSans-20" transform="translate(2312.349609 0)"/>
    <use xlink:href="#DejaVuSans-64" transform="translate(2344.136719 0)"/>
    <use xlink:href="#DejaVuSans-69" transform="translate(2407.613281 0)"/>
    <use xlink:href="#DejaVuSans-66" transform="translate(2435.396484 0)"/>
    <use xlink:href="#DejaVuSans-66" transform="translate(2470.601562 0)"/>
    <use xlink:href="#DejaVuSans-65" transform="translate(2505.806641 0)"/>
    <use xlink:href="#DejaVuSans-72" transform="translate(2567.330078 0)"/>
    <use xlink:href="#DejaVuSans-65" transform="translate(2606.193359 0)"/>
    <use xlink:href="#DejaVuSans-6e" transform="translate(2667.716797 0)"/>
    <use xlink:href="#DejaVuSans-74" transform="translate(2731.095703 0)"/>
    <use xlink:href="#DejaVuSans-20" transform="translate(2770.304688 0)"/>
    <use xlink:href="#DejaVuSans-61" transform="translate(2802.091797 0)"/>
    <use xlink:href="#DejaVuSans-63" transform="translate(2863.371094 0)"/>
    <use xlink:href="#DejaVuSans-63" transform="translate(2918.351562 0)"/>
    <use xlink:href="#DejaVuSans-75" transform="translate(2973.332031 0)"/>
    <use xlink:href="#DejaVuSans-6d" transform="translate(3036.710938 0)"/>
    <use xlink:href="#DejaVuSans-75" transform="translate(3134.123047 0)"/>
    <use xlink:href="#DejaVuSans-6c" transform="translate(3197.501953 0)"/>
    <use xlink:href="#DejaVuSans-61" transform="translate(3225.285156 0)"/>
    <use xlink:href="#DejaVuSans-74" transform="translate(3286.564453 0)"/>
    <use xlink:href="#DejaVuSans-69" transform="translate(3325.773438 0)"/>
    <use xlink:href="#DejaVuSans-6f" transform="translate(3353.556641 0)"/>
    <use xlink:href="#DejaVuSans-6e" transform="translate(3414.738281 0)"/>
    <use xlink:href="#DejaVuSans-20" transform="translate(3478.117188 0)"/>
    <use xlink:href="#DejaVuSans-72" transform="translate(3509.904297 0)"/>
    <use xlink:href="#DejaVuSans-65" transform="translate(3548.767578 0)"/>
    <use xlink:href="#DejaVuSans-67" transform="translate(3610.291016 0)"/>
    <use xlink:href="#DejaVuSans-69" transform="translate(3673.767578 0)"/>
    <use xlink:href="#DejaVuSans-6d" transform="translate(3701.550781 0)"/>
    <use xlink:href="#DejaVuSans-65" transform="translate(3798.962891 0)"/>
    <use xlink:href="#DejaVuSans-73" transform="translate(3860.486328 0)"/>
   </g>
  </g>
 </g>
 <defs>
  <clipPath id="p0820758f53">
   <rect x="45.716875" y="82.752" width="441.34" height="247.648"/>
  </clipPath>
  <clipPath id="pd4cc5b67fb">
   <rect x="543.776875" y="82.752" width="441.34" height="247.648"/>
  </clipPath>
 </defs>
</svg>
